<svg width="127" height="40" viewBox="0 0 127 40" fill="none" xmlns="http://www.w3.org/2000/svg">
<g clip-path="url(#clip0_40007034_1098)">
<mask id="mask0_40007034_1098" style="mask-type:luminance" maskUnits="userSpaceOnUse" x="21" y="33" width="7" height="7">
<path d="M21.8768 38.9047L22.731 37.8838C23.3218 38.3709 23.9413 38.6796 24.6921 38.6796C25.2835 38.6796 25.6404 38.4455 25.6404 38.0617V38.0427C25.6404 37.6776 25.415 37.4906 24.3168 37.2096C22.9935 36.8726 22.1396 36.5073 22.1396 35.2053V35.1869C22.1396 33.9981 23.097 33.2112 24.439 33.2112C25.3962 33.2112 26.2126 33.5109 26.8789 34.0447L26.128 35.1311C25.5461 34.7279 24.9736 34.4847 24.4201 34.4847C23.8663 34.4847 23.5754 34.7376 23.5754 35.0559V35.0747C23.5754 35.5051 23.8568 35.6457 24.9925 35.9361C26.3254 36.2824 27.076 36.76 27.076 37.9023V37.9212C27.076 39.2229 26.0812 39.9529 24.6639 39.9529C23.6692 39.9529 22.6653 39.6063 21.8768 38.9047Z" fill="white"/>
</mask>
<g mask="url(#mask0_40007034_1098)">
<mask id="mask1_40007034_1098" style="mask-type:luminance" maskUnits="userSpaceOnUse" x="0" y="-1" width="127" height="41">
<path d="M0 39.9999H126.667V-0.000118256H0V39.9999Z" fill="white"/>
</mask>
<g mask="url(#mask1_40007034_1098)">
<path d="M21.2422 39.9999H27.7106V32.5783H21.2422V39.9999Z" fill="#777F88"/>
</g>
</g>
<mask id="mask2_40007034_1098" style="mask-type:luminance" maskUnits="userSpaceOnUse" x="28" y="33" width="8" height="7">
<path d="M33.9654 36.6009V36.5821C33.9654 35.4588 33.1394 34.5221 31.9757 34.5221C30.812 34.5221 30.0049 35.44 30.0049 36.5634V36.5821C30.0049 37.7059 30.8308 38.6424 31.9944 38.6424C33.1581 38.6422 33.9653 37.7246 33.9654 36.6009ZM28.494 36.6009V36.5821C28.494 34.7187 29.9673 33.1924 31.9944 33.1924C34.0218 33.1924 35.4763 34.7004 35.4763 36.5634V36.5821C35.4763 38.4456 34.0026 39.9717 31.9757 39.9717C29.9487 39.9717 28.494 38.4643 28.494 36.6009Z" fill="white"/>
</mask>
<g mask="url(#mask2_40007034_1098)">
<mask id="mask3_40007034_1098" style="mask-type:luminance" maskUnits="userSpaceOnUse" x="0" y="0" width="127" height="40">
<path d="M0 40H126.667V3.8147e-06H0V40Z" fill="white"/>
</mask>
<g mask="url(#mask3_40007034_1098)">
<path d="M27.8594 40H36.1108V32.5595H27.8594V40Z" fill="#777F88"/>
</g>
</g>
<mask id="mask4_40007034_1098" style="mask-type:luminance" maskUnits="userSpaceOnUse" x="37" y="33" width="6" height="7">
<path d="M37.1385 33.3048H38.4711L41.5495 37.3407V33.3048H42.9757V39.8593H41.7465L38.5651 35.6927V39.8593H37.1385V33.3048Z" fill="white"/>
</mask>
<g mask="url(#mask4_40007034_1098)">
<mask id="mask5_40007034_1098" style="mask-type:luminance" maskUnits="userSpaceOnUse" x="0" y="-1" width="127" height="41">
<path d="M0.00012207 39.9999H126.667V-0.000118256H0.00012207V39.9999Z" fill="white"/>
</mask>
<g mask="url(#mask5_40007034_1098)">
<path d="M36.504 39.9999H43.6104V32.6718H36.504V39.9999Z" fill="#777F88"/>
</g>
</g>
<mask id="mask6_40007034_1098" style="mask-type:luminance" maskUnits="userSpaceOnUse" x="44" y="33" width="8" height="7">
<path d="M44.8164 36.6009V36.5821C44.8164 34.7187 46.271 33.1924 48.2609 33.1924C49.4429 33.1924 50.1563 33.5109 50.8413 34.091L49.931 35.187C49.4243 34.7658 48.9737 34.5221 48.2138 34.5221C47.1628 34.5221 46.327 35.4491 46.327 36.5634V36.5821C46.327 37.7808 47.1534 38.6612 48.317 38.6612C48.8427 38.6612 49.3115 38.5298 49.6776 38.2679V37.3309H48.2232V36.0857H51.076V38.9326C50.4003 39.5036 49.4711 39.9717 48.2702 39.9717C46.224 39.9717 44.8164 38.5393 44.8164 36.6009Z" fill="white"/>
</mask>
<g mask="url(#mask6_40007034_1098)">
<mask id="mask7_40007034_1098" style="mask-type:luminance" maskUnits="userSpaceOnUse" x="0" y="0" width="127" height="40">
<path d="M0 40H126.667V3.8147e-06H0V40Z" fill="white"/>
</mask>
<g mask="url(#mask7_40007034_1098)">
<path d="M44.1818 40H51.7106V32.5595H44.1818V40Z" fill="#777F88"/>
</g>
</g>
<mask id="mask8_40007034_1098" style="mask-type:luminance" maskUnits="userSpaceOnUse" x="56" y="33" width="7" height="7">
<path d="M56.1173 36.6009V36.5821C56.1173 34.7187 57.5249 33.1924 59.5428 33.1924C60.7809 33.1924 61.5229 33.6044 62.1332 34.2041L61.2129 35.2619C60.706 34.8029 60.1898 34.5221 59.5332 34.5221C58.4257 34.5221 57.628 35.44 57.628 36.5634V36.5821C57.628 37.7059 58.4071 38.6424 59.5332 38.6424C60.2837 38.6422 60.7433 38.3426 61.2596 37.8745L62.1797 38.8016C61.5037 39.5224 60.7528 39.9717 59.4864 39.9717C57.5532 39.9717 56.1173 38.4828 56.1173 36.6009Z" fill="white"/>
</mask>
<g mask="url(#mask8_40007034_1098)">
<mask id="mask9_40007034_1098" style="mask-type:luminance" maskUnits="userSpaceOnUse" x="0" y="0" width="127" height="40">
<path d="M0 40H126.667V3.8147e-06H0V40Z" fill="white"/>
</mask>
<g mask="url(#mask9_40007034_1098)">
<path d="M55.4827 40H62.8142V32.5595H55.4827V40Z" fill="#777F88"/>
</g>
</g>
<mask id="mask10_40007034_1098" style="mask-type:luminance" maskUnits="userSpaceOnUse" x="63" y="33" width="8" height="7">
<path d="M68.8912 36.6009V36.5821C68.8912 35.4588 68.0648 34.5221 66.9016 34.5221C65.7374 34.5221 64.9305 35.44 64.9305 36.5634V36.5821C64.9305 37.7059 65.7565 38.6424 66.9204 38.6424C68.084 38.6422 68.8912 37.7246 68.8912 36.6009ZM63.4198 36.6009V36.5821C63.4198 34.7187 64.8928 33.1924 66.9204 33.1924C68.9476 33.1924 70.4018 34.7004 70.4018 36.5634L70.402 36.5821C70.402 38.4456 68.9285 39.9717 66.9016 39.9717C64.8746 39.9717 63.4198 38.4643 63.4198 36.6009Z" fill="white"/>
</mask>
<g mask="url(#mask10_40007034_1098)">
<mask id="mask11_40007034_1098" style="mask-type:luminance" maskUnits="userSpaceOnUse" x="0" y="0" width="127" height="40">
<path d="M0 40H126.667V3.8147e-06H0V40Z" fill="white"/>
</mask>
<g mask="url(#mask11_40007034_1098)">
<path d="M62.7852 40H71.0366V32.5595H62.7852V40Z" fill="#777F88"/>
</g>
</g>
<mask id="mask12_40007034_1098" style="mask-type:luminance" maskUnits="userSpaceOnUse" x="72" y="33" width="6" height="7">
<path d="M72.0643 33.3048H73.3969L76.4753 37.3407V33.3048H77.9019V39.8593H76.6721L73.4908 35.6927V39.8593H72.0643V33.3048Z" fill="white"/>
</mask>
<g mask="url(#mask12_40007034_1098)">
<mask id="mask13_40007034_1098" style="mask-type:luminance" maskUnits="userSpaceOnUse" x="0" y="-1" width="127" height="41">
<path d="M0 39.9999H126.667V-0.000118256H0V39.9999Z" fill="white"/>
</mask>
<g mask="url(#mask13_40007034_1098)">
<path d="M71.4297 39.9999H78.5364V32.6718H71.4297V39.9999Z" fill="#777F88"/>
</g>
</g>
<mask id="mask14_40007034_1098" style="mask-type:luminance" maskUnits="userSpaceOnUse" x="79" y="33" width="6" height="7">
<path d="M81.4314 34.6344H79.4324V33.3048H84.8755V34.6344H82.8766V39.8593H81.4314V34.6344Z" fill="white"/>
</mask>
<g mask="url(#mask14_40007034_1098)">
<mask id="mask15_40007034_1098" style="mask-type:luminance" maskUnits="userSpaceOnUse" x="0" y="-1" width="127" height="41">
<path d="M0.00012207 39.9999H126.667V-0.000118256H0.00012207V39.9999Z" fill="white"/>
</mask>
<g mask="url(#mask15_40007034_1098)">
<path d="M78.7979 39.9999H85.5102V32.6718H78.7979V39.9999Z" fill="#777F88"/>
</g>
</g>
<mask id="mask16_40007034_1098" style="mask-type:luminance" maskUnits="userSpaceOnUse" x="86" y="33" width="6" height="7">
<path d="M86.547 33.3048H91.502V34.5875H87.9832V35.917H91.08V37.2001H87.9832V38.5767H91.5493V39.8593H86.547V33.3048Z" fill="white"/>
</mask>
<g mask="url(#mask16_40007034_1098)">
<mask id="mask17_40007034_1098" style="mask-type:luminance" maskUnits="userSpaceOnUse" x="0" y="-1" width="127" height="41">
<path d="M0 39.9999H126.667V-0.000118256H0V39.9999Z" fill="white"/>
</mask>
<g mask="url(#mask17_40007034_1098)">
<path d="M85.9124 39.9999H92.1839V32.6718H85.9124V39.9999Z" fill="#777F88"/>
</g>
</g>
<mask id="mask18_40007034_1098" style="mask-type:luminance" maskUnits="userSpaceOnUse" x="92" y="33" width="7" height="7">
<path d="M92.9392 38.9047L93.7931 37.8838C94.3842 38.3709 95.0038 38.6796 95.7548 38.6796C96.3455 38.6796 96.7025 38.4455 96.7025 38.0617V38.0427C96.7025 37.6776 96.4772 37.4906 95.3793 37.2096C94.0559 36.8726 93.2019 36.5073 93.2019 35.2053L93.2022 35.1869C93.2022 33.9981 94.159 33.2112 95.5014 33.2112C96.4582 33.2112 97.2751 33.5109 97.9414 34.0447L97.1905 35.1311C96.6087 34.7279 96.0359 34.4847 95.4824 34.4847C94.9291 34.4847 94.6378 34.7376 94.6378 35.0559V35.0747C94.6378 35.5051 94.9192 35.6457 96.0547 35.9361C97.3876 36.2824 98.1383 36.76 98.1383 37.9023L98.1384 37.9212C98.1384 39.2229 97.1436 39.9529 95.7261 39.9529C94.732 39.9529 93.7276 39.6063 92.9392 38.9047Z" fill="white"/>
</mask>
<g mask="url(#mask18_40007034_1098)">
<mask id="mask19_40007034_1098" style="mask-type:luminance" maskUnits="userSpaceOnUse" x="0" y="-1" width="127" height="41">
<path d="M0 39.9999H126.667V-0.000118256H0V39.9999Z" fill="white"/>
</mask>
<g mask="url(#mask19_40007034_1098)">
<path d="M92.3046 39.9999H98.773V32.5783H92.3046V39.9999Z" fill="#777F88"/>
</g>
</g>
<mask id="mask20_40007034_1098" style="mask-type:luminance" maskUnits="userSpaceOnUse" x="99" y="33" width="6" height="7">
<path d="M101.34 34.6344H99.3408V33.3048H104.784V34.6344H102.784V39.8593H101.34V34.6344Z" fill="white"/>
</mask>
<g mask="url(#mask20_40007034_1098)">
<mask id="mask21_40007034_1098" style="mask-type:luminance" maskUnits="userSpaceOnUse" x="0" y="-1" width="127" height="41">
<path d="M0.00012207 39.9999H126.667V-0.000118256H0.00012207V39.9999Z" fill="white"/>
</mask>
<g mask="url(#mask21_40007034_1098)">
<path d="M98.7063 39.9999H105.419V32.6718H98.7063V39.9999Z" fill="#777F88"/>
</g>
</g>
<mask id="mask22_40007034_1098" style="mask-type:luminance" maskUnits="userSpaceOnUse" x="101" y="8" width="13" height="19">
<path d="M107.575 24.3947C105.881 24.309 104.913 22.3093 105.032 20.2656C105.239 16.6638 108.256 13.0285 108.256 13.0285C108.96 13.6698 111.079 17.1455 110.964 19.8052C110.852 22.403 109.267 24.48 107.575 24.3947ZM109.591 11.8319C110.319 10.9857 110.818 10.4924 110.706 9.90571C110.593 9.319 108.602 8.91204 107.715 9.72824C105.094 7.65255 105.63 10.0841 106.01 10.6263C102.913 12.7993 100.818 18.5193 102.503 22.9825C104.151 27.3455 109.122 27.8838 111.729 24.8176C114.037 22.1024 113.625 17.1113 109.591 11.8319Z" fill="white"/>
</mask>
<g mask="url(#mask22_40007034_1098)">
<mask id="mask23_40007034_1098" style="mask-type:luminance" maskUnits="userSpaceOnUse" x="0" y="0" width="127" height="40">
<path d="M0.00012207 40H126.667V3.8147e-06H0.00012207V40Z" fill="white"/>
</mask>
<g mask="url(#mask23_40007034_1098)">
<path d="M101.27 27.39H113.77V8.27052H101.27V27.39Z" fill="#777F88"/>
</g>
</g>
<mask id="mask24_40007034_1098" style="mask-type:luminance" maskUnits="userSpaceOnUse" x="0" y="3" width="16" height="27">
<path d="M12.5153 3.1579C6.67263 2.73562 0.215508 7.56373 0.462458 13.8168C0.486156 14.4171 0.995028 14.9671 1.72551 14.9671C2.62917 14.9671 5.27592 14.8671 5.27592 14.8671C5.27592 14.8671 0.053833 18.9749 0.053833 23.7842C0.053833 26.3221 1.96195 29.3619 5.94533 29.3619C11.528 29.3617 15.6893 24.8015 15.6815 20.9382C15.6811 20.644 15.3428 20.2292 14.7973 20.8888C13.9322 21.9354 9.29231 26.6898 4.70656 26.6898C3.16691 26.6896 1.82814 25.8211 1.82814 23.9846C1.82814 21.5798 5.64423 16.904 12.2048 15.0669C13.8117 14.5998 13.9453 12.3618 11.9035 12.2618C9.89647 12.1633 2.96606 12.9296 2.46414 12.9296C1.96195 12.9296 1.91669 12.8215 2.09582 12.3618C2.33028 11.7606 4.87404 7.31866 12.5061 6.48373C15.0837 6.28309 14.825 3.32524 12.5153 3.1579Z" fill="white"/>
</mask>
<g mask="url(#mask24_40007034_1098)">
<mask id="mask25_40007034_1098" style="mask-type:luminance" maskUnits="userSpaceOnUse" x="0" y="0" width="127" height="40">
<path d="M0 40H126.667V3.8147e-06H0V40Z" fill="white"/>
</mask>
<g mask="url(#mask25_40007034_1098)">
<path d="M0 29.9949H16.316V2.4993H0V29.9949Z" fill="#777F88"/>
</g>
</g>
<mask id="mask26_40007034_1098" style="mask-type:luminance" maskUnits="userSpaceOnUse" x="16" y="8" width="11" height="19">
<path d="M20.7758 10.4613C20.7758 8.95095 18.5279 8.02336 17.6807 10.1621C16.0497 14.2801 15.5544 26.7584 21.0128 26.7584C23.4091 26.7583 26.4672 21.5192 26.4672 16.4053C26.4672 12.1879 24.7367 9.43146 24.3705 8.93386C24.0044 8.43551 23.505 8.70133 23.5717 9.63146C23.6383 10.5607 23.9043 19.1613 21.2084 22.2831C20.1436 23.445 19.3588 22.2346 19.2451 21.0879C18.9122 17.7336 20.7758 12.653 20.7758 10.4613Z" fill="white"/>
</mask>
<g mask="url(#mask26_40007034_1098)">
<mask id="mask27_40007034_1098" style="mask-type:luminance" maskUnits="userSpaceOnUse" x="0" y="-1" width="127" height="41">
<path d="M0 39.9999H126.667V-0.000118256H0V39.9999Z" fill="white"/>
</mask>
<g mask="url(#mask27_40007034_1098)">
<path d="M15.9418 27.3914H27.1019V8.05364H15.9418V27.3914Z" fill="#777F88"/>
</g>
</g>
<mask id="mask28_40007034_1098" style="mask-type:luminance" maskUnits="userSpaceOnUse" x="40" y="8" width="11" height="19">
<path d="M45.7212 23.8646C44.1886 23.8646 43.3368 21.8894 43.3368 19.7442C43.3368 15.9637 46.0615 12.5243 46.0615 12.5243C46.8107 13.4776 48.6159 16.1678 48.6159 18.8923C48.6159 21.6171 47.253 23.8646 45.7212 23.8646ZM46.9472 11.3323C46.9472 11.3323 47.813 10.1585 47.292 9.49608C46.7061 8.74962 44.8285 8.51696 43.0694 10.4833C40.7533 13.0714 39.1308 18.5332 40.8848 23.1153C42.5617 27.4966 47.2571 27.8666 49.433 24.5461C51.3742 21.5827 50.8636 16.6447 46.9472 11.3323Z" fill="white"/>
</mask>
<g mask="url(#mask28_40007034_1098)">
<mask id="mask29_40007034_1098" style="mask-type:luminance" maskUnits="userSpaceOnUse" x="0" y="0" width="127" height="40">
<path d="M0 40H126.667V3.8147e-06H0V40Z" fill="white"/>
</mask>
<g mask="url(#mask29_40007034_1098)">
<path d="M39.5105 27.3914H51.167V8.3192H39.5105V27.3914Z" fill="#777F88"/>
</g>
</g>
<mask id="mask30_40007034_1098" style="mask-type:luminance" maskUnits="userSpaceOnUse" x="27" y="8" width="14" height="20">
<path d="M31.5449 15.802C31.6789 14.0989 31.8128 12.3286 31.8128 12.3286C31.813 12.3284 35.6291 11.3596 36.9341 11.4938C38.0706 11.6099 38.3066 12.0947 37.728 12.9911C36.3653 15.1019 33.232 15.8325 31.5449 15.802ZM39.7365 27.0976C38.1041 24.8371 36.0538 20.3119 32.9173 17.5723C36.0975 17.3716 40.0806 14.9005 40.0806 12.2619C40.0806 10.308 38.0433 8.89975 35.3991 8.89975C32.7548 8.89975 29.838 9.79051 28.7333 10.4582C27.2936 11.2932 28.365 13.2635 29.7042 12.7296C29.7042 12.7296 29.202 15.067 29.0682 16.303C27.9808 16.1689 27.7623 16.3696 27.8294 16.6035C27.8966 16.8371 28.365 17.038 28.9007 17.7062C28.7333 19.1752 28.4368 25.7099 28.5037 26.2779C28.5712 26.8497 28.9166 26.9485 29.4074 26.3444C29.8427 25.8105 30.7751 24.5191 31.2103 19.6433C31.7124 20.0768 33.0848 21.9113 34.7586 24.0514C37.2133 27.1909 38.0227 27.4173 39.0312 27.7712C39.5753 27.9629 40.1363 27.6511 39.7365 27.0976Z" fill="white"/>
</mask>
<g mask="url(#mask30_40007034_1098)">
<mask id="mask31_40007034_1098" style="mask-type:luminance" maskUnits="userSpaceOnUse" x="0" y="0" width="127" height="40">
<path d="M0 40H126.667V3.8147e-06H0V40Z" fill="white"/>
</mask>
<g mask="url(#mask31_40007034_1098)">
<path d="M27.1838 28.4608H40.7152V8.26689H27.1838V28.4608Z" fill="#777F88"/>
</g>
</g>
<mask id="mask32_40007034_1098" style="mask-type:luminance" maskUnits="userSpaceOnUse" x="51" y="0" width="28" height="29">
<path d="M53.9447 12.8962C54.0147 6.65147 57.2717 4.69691 59.0457 4.69691C61.523 4.69691 62.5459 6.58375 62.7132 7.41919C62.8805 8.25388 63.8179 8.92159 64.1192 7.55248C64.4206 6.18337 67.3351 2.00818 70.9166 2.00818C74.1968 2.00792 75.3329 5.38337 75.2344 8.25413C74.9663 16.0691 64.8755 22.3063 63.5474 26.245C62.3648 23.8594 53.8615 20.4113 53.9447 12.8962ZM72.0883 0.0713406C69.1426 0.0713406 65.6586 2.2421 63.5502 5.84945C62.9812 4.54653 60.9538 3.12704 58.5441 3.12704C56.6023 3.12704 51.1517 5.54843 51.1517 13.3639C51.1517 23.4502 61.3792 25.5218 63.447 28.6566C63.5889 28.8722 64.0467 29.0349 64.2211 28.5199C65.871 23.662 78.6637 18.1731 78.6637 8.28729C78.6637 2.74311 75.034 0.0713406 72.0883 0.0713406Z" fill="white"/>
</mask>
<g mask="url(#mask32_40007034_1098)">
<mask id="mask33_40007034_1098" style="mask-type:luminance" maskUnits="userSpaceOnUse" x="0" y="0" width="127" height="40">
<path d="M0 40H126.667V3.8147e-06H0V40Z" fill="white"/>
</mask>
<g mask="url(#mask33_40007034_1098)">
<path d="M50.5172 29.4952H79.2983V-0.561464H50.5172V29.4952Z" fill="#777F88"/>
</g>
</g>
<mask id="mask34_40007034_1098" style="mask-type:luminance" maskUnits="userSpaceOnUse" x="77" y="8" width="6" height="19">
<path d="M80.4094 9.33312C80.4978 12.7275 77.5067 18.1245 77.3154 22.064C77.1751 24.9358 77.691 26.0977 77.9363 26.476C78.1927 26.872 78.7545 26.9062 78.9045 26.186C79.3516 24.0343 82.432 18.3616 82.8267 13.8001C83.0687 11.004 82.1995 9.29299 81.1989 8.96957C80.7523 8.8254 80.3969 8.87957 80.4094 9.33312Z" fill="white"/>
</mask>
<g mask="url(#mask34_40007034_1098)">
<mask id="mask35_40007034_1098" style="mask-type:luminance" maskUnits="userSpaceOnUse" x="0" y="0" width="127" height="40">
<path d="M0 40H126.667V3.8147e-06H0V40Z" fill="white"/>
</mask>
<g mask="url(#mask35_40007034_1098)">
<path d="M76.6569 27.3881H83.5021V8.26579H76.6569V27.3881Z" fill="#777F88"/>
</g>
</g>
<mask id="mask36_40007034_1098" style="mask-type:luminance" maskUnits="userSpaceOnUse" x="81" y="8" width="14" height="20">
<path d="M91.5654 8.89968C87.3802 8.89968 84.3617 10.3803 84.3617 13.7422C84.3618 15.8132 85.9014 17.2379 88.3561 17.6389C89.7845 17.906 91.1747 18.0107 91.6811 18.1955C92.5969 18.529 90.4049 19.5816 86.9934 21.8901C84.6628 23.4673 82.9604 25.1336 82.0507 26.903C81.7357 27.5155 82.162 28.1003 82.8209 27.6478C84.1001 26.7689 86.9034 25.3041 89.6233 23.8111C92.2117 22.3901 94.6499 20.8287 94.6499 18.8859C94.6499 17.1265 93.3266 16.4633 92.3063 16.3473C90.5432 16.1475 86.7271 16.303 86.7271 14.0988C86.7274 13.2749 87.8205 12.1947 91.3353 12.1947C94.047 12.1947 93.7735 8.89968 91.5654 8.89968Z" fill="white"/>
</mask>
<g mask="url(#mask36_40007034_1098)">
<mask id="mask37_40007034_1098" style="mask-type:luminance" maskUnits="userSpaceOnUse" x="0" y="-1" width="127" height="41">
<path d="M0.00012207 39.9999H126.667V-0.000118256H0.00012207V39.9999Z" fill="white"/>
</mask>
<g mask="url(#mask37_40007034_1098)">
<path d="M81.3103 28.4413H95.2846V8.26673H81.3103V28.4413Z" fill="#777F88"/>
</g>
</g>
<mask id="mask38_40007034_1098" style="mask-type:luminance" maskUnits="userSpaceOnUse" x="95" y="8" width="6" height="19">
<path d="M96.8357 9.51262C98.205 12.1354 95.8746 19.2702 95.8746 21.9808C95.8749 24.6915 96.1805 25.6469 96.8996 26.5255C97.2673 26.9757 97.7501 26.7058 97.7947 26.2197C98.0177 23.8305 100.59 17.3458 100.756 14.3326C100.968 10.4945 99.0686 9.00743 97.9557 8.9135C97.3392 8.8616 96.5237 8.97287 96.8357 9.51262Z" fill="white"/>
</mask>
<g mask="url(#mask38_40007034_1098)">
<mask id="mask39_40007034_1098" style="mask-type:luminance" maskUnits="userSpaceOnUse" x="0" y="0" width="127" height="40">
<path d="M0.00012207 40H126.667V3.8147e-06H0.00012207V40Z" fill="white"/>
</mask>
<g mask="url(#mask39_40007034_1098)">
<path d="M95.2401 27.3882H101.407V8.2692H95.2401V27.3882Z" fill="#777F88"/>
</g>
</g>
<mask id="mask40_40007034_1098" style="mask-type:luminance" maskUnits="userSpaceOnUse" x="97" y="0" width="5" height="8">
<path d="M97.7778 5.81171C97.7079 8.31107 101.886 8.71449 101.886 5.6588C101.886 2.99601 99.6531 0.793353 99.2047 0.426771C98.5076 -0.140318 97.5218 -0.0379133 97.754 0.878669C98.2886 2.79968 97.8018 4.93854 97.7778 5.81171Z" fill="white"/>
</mask>
<g mask="url(#mask40_40007034_1098)">
<mask id="mask41_40007034_1098" style="mask-type:luminance" maskUnits="userSpaceOnUse" x="0" y="-1" width="127" height="41">
<path d="M0.00012207 39.9999H126.667V-0.000118256H0.00012207V39.9999Z" fill="white"/>
</mask>
<g mask="url(#mask41_40007034_1098)">
<path d="M97.0848 8.45227H102.521V-0.556182H97.0848V8.45227Z" fill="#777F88"/>
</g>
</g>
<mask id="mask42_40007034_1098" style="mask-type:luminance" maskUnits="userSpaceOnUse" x="114" y="8" width="13" height="19">
<path d="M126.439 26.4987C125.893 23.1416 126.644 18.8221 126.644 14.7517C126.644 11.6443 124.056 10.0468 122.52 10.0468C120.525 10.0468 119.34 10.9444 119.34 10.9444C119.362 10.353 119.465 9.44314 119.446 9.15618C119.424 8.82795 119.029 8.82757 118.459 9.13428C115.322 11.0817 114.869 16.6697 114.869 20.5429C114.87 24.4163 115.487 25.7892 115.552 26.314C115.615 26.8125 116.229 26.8871 116.47 26.4493C118.137 23.2104 118.332 17.3121 118.902 14.0292C119.692 12.9571 122.915 12.7601 123.047 15.3206C123.181 17.9262 122.929 24.5133 125.6 26.813C125.96 27.1228 126.518 26.981 126.439 26.4987Z" fill="white"/>
</mask>
<g mask="url(#mask42_40007034_1098)">
<mask id="mask43_40007034_1098" style="mask-type:luminance" maskUnits="userSpaceOnUse" x="0" y="0" width="127" height="40">
<path d="M0.00012207 40H126.667V3.8147e-06H0.00012207V40Z" fill="white"/>
</mask>
<g mask="url(#mask43_40007034_1098)">
<path d="M114.235 27.6101H127.279V8.27416H114.235V27.6101Z" fill="#777F88"/>
</g>
</g>
</g>
<defs>
<clipPath id="clip0_40007034_1098">
<rect width="126.667" height="40" fill="white"/>
</clipPath>
</defs>
</svg>
