<svg width="135" height="26" viewBox="0 0 135 26" fill="none" xmlns="http://www.w3.org/2000/svg">
<path d="M8.50007 25.5993H3.44417V12.9806H0V8.8722H3.44404V5.94879C3.44404 2.48454 4.96734 0 10.0096 0C11.076 0 12.7502 0.215206 12.7502 0.215206V4.03007H10.9917C9.19993 4.03007 8.50034 4.57574 8.50034 6.08433V8.8722H12.6832L12.3107 12.9806H8.50021L8.50007 25.5993ZM20.101 8.54388C20.0273 8.54388 19.9515 8.54657 19.8765 8.54845C15.1884 8.54845 13.0434 12.0791 13.0434 17.0909C13.0434 23.4044 15.8257 25.9312 19.9131 25.9312C22.2517 25.9312 23.7881 24.9457 24.722 23.1067V25.601H29.5309V8.87395H24.722V11.4463C23.9595 9.79132 22.3801 8.5635 20.101 8.54388ZM21.3237 12.4964C23.2927 12.4964 24.4746 13.8715 24.4746 16.2104L24.4791 18.5993C24.4791 20.1757 23.503 22.02 21.3237 22.02C17.9733 22.02 18.0628 18.3981 18.0628 17.1917C18.0628 13.1339 19.8479 12.4964 21.3237 12.4964ZM31.4729 17.2384C31.4729 15.2057 31.3758 8.55476 40.0307 8.55476C43.5049 8.55476 44.9556 9.66075 44.9556 9.66075L43.7897 13.2815C43.7897 13.2815 42.3408 12.4827 40.453 12.4827C38.035 12.4827 36.4921 13.8861 36.4921 16.3554L36.4948 18.1259C36.4948 20.4985 37.9834 22.0824 40.4579 22.0824C42.1778 22.0824 43.763 21.2761 43.763 21.2761L44.926 24.8212C44.926 24.8212 43.5995 25.9342 40.055 25.9342C31.8141 25.9342 31.4731 19.967 31.4731 17.2384H31.4729ZM73.1519 8.54845C77.8401 8.54845 80.0189 12.0791 80.0189 17.0909C80.0189 23.4044 77.2365 25.9312 73.149 25.9312C70.8105 25.9312 69.0818 24.9459 68.1479 23.1067V25.601L63.3995 25.5991V0.508595L68.4411 0.0683769V11.2197C69.1687 9.26876 71.5599 8.54845 73.1519 8.54845ZM71.7384 12.4964C69.7694 12.4964 68.4411 13.8715 68.4411 16.2104L68.4364 18.5993C68.4334 20.1757 69.3563 22.02 71.7384 22.02C75.0888 22.02 74.9993 18.3981 74.9993 17.1917C74.9993 13.1339 73.2144 12.4964 71.7384 12.4964ZM53.7031 8.56229C48.3857 8.56229 45.5785 11.4649 45.5785 16.6231V17.5815C45.5785 24.2763 49.5207 26 54.2207 26C58.789 26 60.8568 24.7207 60.8568 24.7207L59.9134 21.314C59.9134 21.314 57.481 22.3501 54.8251 22.3501C52.0718 22.3501 50.8877 21.6475 50.5842 18.9984H61.2598V16.2654C61.2598 10.67 58.1092 8.56215 53.703 8.56215L53.7031 8.56229ZM53.8313 11.9736C55.6719 11.9736 56.8646 13.1036 56.7991 15.7244H50.5935C50.7011 12.9661 51.9873 11.9736 53.8313 11.9736ZM90.0715 8.53932C84.6109 8.53932 81.7362 11.6202 81.7362 17.1412C81.7362 24.7164 86.6916 25.9358 90.0806 25.9358C95.0419 25.9358 98.3427 23.2616 98.3427 17.21C98.3427 10.9114 94.6313 8.53932 90.0715 8.53932ZM90.0028 12.5101C92.4039 12.5101 93.3553 14.3093 93.3553 16.3573V18.118C93.3553 20.5989 92.024 22.0339 89.9937 22.0339C88.0948 22.0339 86.7603 20.6916 86.7603 18.118V16.3573C86.7603 13.6125 88.3483 12.5101 90.0028 12.5101ZM108.386 8.53932C102.926 8.53932 100.051 11.6202 100.051 17.1412C100.051 24.7164 105.006 25.9358 108.395 25.9358C113.357 25.9358 116.657 23.2616 116.657 17.21C116.657 10.9114 112.946 8.53932 108.386 8.53932ZM108.318 12.5101C110.719 12.5101 111.67 14.3093 111.67 16.3573V18.118C111.67 20.5989 110.339 22.0339 108.308 22.0339C106.41 22.0339 105.075 20.6916 105.075 18.118V16.3573C105.075 13.6125 106.663 12.5101 108.318 12.5101ZM118.563 25.5993V0.508595L123.619 0.0683769V16.8857L128.635 8.8722H133.975L128.742 17.1719L134.176 25.5993H128.821L123.619 17.4164V25.5993H118.563Z" fill="#777F88"/>
</svg>
