<svg width="130" height="16" viewBox="0 0 130 16" fill="none" xmlns="http://www.w3.org/2000/svg">
<g clip-path="url(#clip0_40007007_973)">
<path fill-rule="evenodd" clip-rule="evenodd" d="M1.94907 14.2222H7.39493C7.61463 14.2222 7.79628 14.0002 7.79628 13.7278V11.5555H6.99185V13.2523C6.99185 13.267 7.01261 13.2418 6.96764 13.2502C6.95553 13.2502 6.94169 13.2502 6.92958 13.2502H1.94907V14.2222Z" fill="#1D2939"/>
<path fill-rule="evenodd" clip-rule="evenodd" d="M17.5416 15.0956H12.5505C12.5155 15.0607 12.5015 15.082 12.4963 15.1072C12.4876 15.1498 12.5068 15.2079 12.5068 15.0433V11.5555H11.6944V15.543C11.6944 15.7889 11.8796 16 12.1015 16H17.5416V15.0937V15.0956Z" fill="#1D2939"/>
<path fill-rule="evenodd" clip-rule="evenodd" d="M121.101 15.4364C120.503 15.4364 119.97 15.1401 119.64 14.6236L118.654 13.2245H114.584L113.609 14.6069C113.486 14.8226 113.331 15.0004 113.16 15.1219C112.898 15.33 112.555 15.4349 112.142 15.4349H104.903C104.264 15.4349 103.797 15.2617 103.514 14.9199L103.488 14.9472L103.454 14.9746C103.09 15.2784 102.658 15.4333 102.174 15.4333H96.7172C96.1975 15.4333 95.7279 15.2571 95.3947 14.9381C95.04 14.6084 94.8501 14.2074 94.8501 13.7805V5.52526H89.7235C89.6719 5.52526 89.6219 5.52374 89.572 5.5207V13.8321C89.532 14.2894 89.3521 14.6525 89.0207 14.9563C88.6925 15.2693 88.2445 15.4394 87.7349 15.4394H81.2775C80.9027 15.4394 80.5563 15.3452 80.2465 15.1599C79.9084 15.3832 79.5586 15.4394 79.2921 15.4394H61.5973V15.4212L59.3654 15.4394C58.8907 15.4394 58.4544 15.2784 58.0979 14.9761L58.0813 14.9609L58.0546 14.9351C57.9314 14.809 57.8315 14.6783 57.7532 14.5446C57.6699 14.692 57.5583 14.8302 57.4201 14.9563C57.0953 15.2693 56.6472 15.4394 56.1326 15.4394H49.6786C49.1955 15.4394 48.7642 15.286 48.3977 14.9837L48.3611 14.9533C48.3611 14.9533 48.3061 14.8956 48.2961 14.8849C48.2828 14.9001 48.2412 14.9427 48.2412 14.9427L48.2162 14.9654C47.8498 15.2799 47.4134 15.4409 46.942 15.4409H39.4504C38.8924 15.4409 38.4427 15.2875 38.1129 14.9852L33.8025 11.1766V13.7881C33.8025 14.2013 33.6376 14.5826 33.3128 14.9214L33.2845 14.9502L33.2528 14.9776C32.8947 15.2814 32.4584 15.4409 31.9903 15.4409H25.9993C25.538 15.4409 25.1033 15.2829 24.7418 14.9837L24.7069 14.9548L24.6752 14.9214C24.3488 14.5811 24.1822 14.1998 24.1822 13.7881V1.65591C24.1822 1.23509 24.3654 0.844664 24.7135 0.530194C25.0783 0.200532 25.523 0.0258261 25.9977 0.0258261H33.4844C34.0506 0.0258261 34.5037 0.182302 34.8318 0.492214L39.1106 4.26738V1.65591C39.1106 1.19863 39.3138 0.793012 39.6836 0.510444C40.0183 0.192936 40.4564 0.0258261 40.9494 0.0258261H46.9387C47.4084 0.0258261 47.8448 0.192936 48.1979 0.511964C48.2312 0.53779 48.2628 0.566654 48.2928 0.593999C48.3228 0.565135 48.3544 0.53627 48.3877 0.510444C48.7542 0.188378 49.1872 0.0258261 49.6752 0.0258261H56.1293C56.6256 0.0258261 57.0636 0.194455 57.3967 0.513483C57.5416 0.624383 57.6599 0.758071 57.7482 0.908469C57.8381 0.75959 57.9547 0.624383 58.0963 0.511964C58.4527 0.194455 58.8874 0.0258261 59.3554 0.0258261H64.8551C65.3514 0.0258261 65.7895 0.194455 66.1259 0.513483C66.4557 0.768705 66.6456 1.13027 66.6905 1.58906V1.60881L66.6939 1.64223V3.59742L70.7162 0.0258261L79.2888 0C79.6702 0 80.0233 0.0820357 80.3281 0.24155C80.6013 0.0987467 80.9194 0.0258261 81.2775 0.0258261H87.7349C88.1046 0.0258261 88.4427 0.120015 88.7292 0.299278C89.0157 0.120015 89.3538 0.0258261 89.7252 0.0258261H108.654C109.147 0.0258261 109.584 0.192936 109.917 0.510444C110.25 0.762628 110.441 1.12571 110.488 1.58906V1.60881L110.491 1.64223V2.31523L111.416 0.840106C111.707 0.329662 112.343 0.0258261 113.118 0.0258261H120.115C120.871 0.0258261 121.481 0.300798 121.829 0.800608L121.84 0.818838L129.75 13.4326C130.192 14.1451 129.937 14.6601 129.807 14.85L129.79 14.8728C129.355 15.4379 128.583 15.4379 128.328 15.4379H121.099L121.101 15.4364ZM104.011 12.6457L108.476 5.52526H104.011V12.6457ZM61.8471 10.9822C62.6266 11.4926 63.3844 12.0623 64.1173 12.6927C64.9117 13.4189 65.6213 14.1739 66.2458 14.9594C66.8371 14.2286 67.5033 13.5207 68.2412 12.8355C68.9923 12.1398 69.7901 11.5108 70.6263 10.9533C69.8734 10.455 69.1372 9.89746 68.4161 9.28219C67.6133 8.59704 66.8921 7.86175 66.2508 7.08393C65.6096 7.87847 64.8867 8.61831 64.0856 9.29738C63.3611 9.9172 62.6149 10.4793 61.8454 10.9822H61.8471ZM80.6446 13.6635V2.00836L74.049 7.81618L80.6446 13.662V13.6635ZM111.874 8.56058C112.722 9.13331 113.534 9.77896 114.309 10.4945C115.102 11.2146 115.816 11.9742 116.449 12.7672C117.15 11.9164 117.951 11.1098 118.854 10.3471C119.572 9.69541 120.335 9.09989 121.134 8.56514C120.32 8.00912 119.544 7.38625 118.811 6.69806C117.928 5.97797 117.137 5.20319 116.446 4.37524C115.804 5.16369 115.083 5.90961 114.285 6.60539C113.533 7.32852 112.727 7.98025 111.874 8.56058ZM43.003 5.97493C43.9324 6.58109 44.8384 7.26016 45.7179 8.00912C46.6722 8.82036 47.535 12.8355 48.2978 13.785C49.0107 12.9161 49.8151 8.94949 50.7095 8.1428C51.5873 7.33156 52.52 6.59932 53.4993 5.94759C52.5999 5.36119 51.7239 4.70642 50.8744 3.98633C49.9217 3.17357 49.0623 2.30004 48.3011 1.3779C47.535 2.30915 46.6572 3.19028 45.6696 4.01519C44.8018 4.73528 43.9124 5.39005 43.0013 5.97645L43.003 5.97493Z" fill="#1D2939"/>
<path fill-rule="evenodd" clip-rule="evenodd" d="M121.101 14.9806C120.676 14.9806 120.308 14.7695 120.067 14.3851L118.927 12.7672H116.529V10.4383C116.529 9.91264 116.734 9.48423 117.157 9.13026C117.545 8.77478 118.046 8.58032 118.594 8.58032H120.768V8.55298H118.594C118.023 8.55298 117.538 8.36612 117.152 7.99696C116.744 7.67185 116.529 7.22977 116.529 6.71781V4.8082H116.469V6.71781C116.469 7.20243 116.254 7.65514 115.861 7.9924C115.476 8.3646 114.98 8.5545 114.385 8.5545H112.217V8.58184H114.385C114.963 8.58184 115.461 8.77022 115.863 9.1409C116.264 9.5055 116.469 9.94303 116.469 10.4383V12.7672H114.312L113.178 14.3775C113.083 14.5477 112.965 14.6859 112.843 14.7695C112.672 14.9107 112.442 14.9791 112.145 14.9791H104.907C104.412 14.9791 104.082 14.8636 103.899 14.6236C103.747 14.4474 103.641 14.1405 103.954 13.6529L109.527 4.76718C109.287 4.96315 108.987 5.06646 108.656 5.06646H103.513V13.782C103.513 14.0828 103.389 14.3638 103.146 14.616L103.135 14.6282L103.121 14.6388C102.846 14.8667 102.538 14.9791 102.177 14.9791H96.7205C96.3391 14.9791 95.9977 14.853 95.7578 14.6251C95.4897 14.376 95.3514 14.0919 95.3514 13.782V5.0695H89.7252C89.4887 5.0695 89.2688 5.01785 89.0739 4.91758V13.8078C89.044 14.1451 88.9157 14.4064 88.6675 14.6327C88.426 14.8621 88.1112 14.9821 87.7348 14.9821H81.2775C80.921 14.9821 80.6112 14.8712 80.3331 14.6449L80.3164 14.6312L80.3015 14.6145C80.2781 14.5887 80.2548 14.5629 80.2332 14.537C79.935 14.891 79.5786 14.9821 79.2921 14.9821H66.2575V12.8857C66.2575 12.4011 66.4623 11.9666 66.8671 11.5929C67.2635 11.2252 67.7748 11.0292 68.3461 11.0292H70.4897V11.0049H68.3461C67.7865 11.0049 67.3201 10.8287 66.8771 10.452C66.4773 10.1101 66.2575 9.6559 66.2575 9.1728V7.26471H66.2258V9.19407C66.1859 9.70451 65.971 10.1405 65.6013 10.452C65.1732 10.8181 64.6785 11.0049 64.1339 11.0049H61.962V11.0292H64.1339C64.6802 11.0292 65.1749 11.2161 65.6029 11.5853C65.9877 11.9362 66.1875 12.354 66.2258 12.8659V12.8857V14.9821H62.0969V14.9609L59.3621 14.9821C59.0206 14.9821 58.7025 14.8636 58.4394 14.6403L58.4277 14.6312L58.4177 14.6206C58.1695 14.3669 58.0446 14.0858 58.0446 13.785V1.6559C58.0446 1.33839 58.1895 1.04367 58.441 0.846179C58.7025 0.607667 59.0206 0.481576 59.3604 0.481576H64.8601C65.2315 0.481576 65.543 0.604629 65.7878 0.846179C66.0293 1.02392 66.1626 1.28066 66.1975 1.62856V1.64223V4.67755L70.921 0.481576L79.2921 0.45575C79.7052 0.45575 80.0583 0.575765 80.3348 0.805161C80.5763 0.589437 80.8927 0.481576 81.2791 0.481576H87.7365C88.1112 0.481576 88.4244 0.606148 88.6692 0.853775C88.6909 0.870485 88.7108 0.888716 88.7308 0.906946C88.7508 0.888716 88.7708 0.870485 88.7924 0.853775C89.034 0.610706 89.3571 0.483095 89.7268 0.483095H108.656C109.021 0.483095 109.337 0.609187 109.577 0.846179C109.82 1.02088 109.957 1.27763 109.992 1.63008V1.64375V3.88454V3.89821C109.983 3.96202 109.975 4.02126 109.962 4.07899L111.855 1.05886C112.059 0.697299 112.522 0.481576 113.12 0.481576H120.117C120.696 0.481576 121.156 0.682107 121.409 1.04671L129.319 13.6605C129.615 14.1405 129.489 14.4595 129.387 14.6084L129.377 14.6221C129.127 14.9457 128.661 14.9837 128.331 14.9837H121.103L121.101 14.9806ZM79.9417 12.6183V3.05658L74.5303 7.82225L79.9417 12.6183ZM49.6785 14.9806C49.3188 14.9806 49.009 14.8697 48.7325 14.6418L48.7175 14.6297L48.7042 14.616C48.461 14.3608 48.3378 14.0813 48.3378 13.7835V7.82225C48.3378 7.33156 48.5443 6.89707 48.954 6.52791C49.3554 6.15723 49.8518 5.96733 50.4264 5.96733H52.57V5.93695H50.4264C49.8751 5.93695 49.3954 5.75769 48.9607 5.39004C48.5576 5.04671 48.3378 4.58944 48.3378 4.10178V1.6559C48.3378 1.33839 48.481 1.04367 48.7292 0.844659C49.0057 0.600072 49.3155 0.481576 49.6769 0.481576H56.1309C56.4973 0.481576 56.8171 0.607667 57.0553 0.846179C57.3118 1.03304 57.4467 1.31257 57.4467 1.6559V13.785C57.4467 14.1192 57.3218 14.3957 57.0636 14.6327C56.8254 14.8621 56.509 14.9821 56.1309 14.9821H49.6769L49.6785 14.9806ZM39.4504 14.9806C39.0306 14.9806 38.6992 14.8728 38.466 14.6586L33.3028 10.0965V13.7835C33.3028 14.0828 33.1795 14.3623 32.9364 14.616L32.9247 14.6282L32.9114 14.6388C32.6432 14.8652 32.3334 14.9791 31.9887 14.9791H25.9977C25.6579 14.9791 25.3481 14.8652 25.0766 14.6403L25.0633 14.6282L25.05 14.6145C24.8051 14.3593 24.6819 14.0798 24.6819 13.782V1.6559C24.6819 1.3551 24.8118 1.08469 25.0666 0.853775C25.3398 0.606148 25.6529 0.481576 25.9977 0.481576H33.4843C33.9157 0.481576 34.2388 0.587918 34.4737 0.808199L39.6103 5.34143V1.6559C39.6103 1.32624 39.7568 1.04063 40.025 0.844659C40.2698 0.60311 40.5813 0.481576 40.9494 0.481576H46.9387C47.2801 0.481576 47.5966 0.607667 47.8581 0.846179C48.1096 1.04215 48.2545 1.33687 48.2545 1.6559V4.40865L48.2512 4.43144C48.1879 4.80364 47.9963 5.12723 47.6799 5.39004C47.2435 5.75313 46.7522 5.93543 46.2175 5.93543H44.044V5.96581H46.2175C46.7572 5.96581 47.2502 6.15267 47.6832 6.52031C47.9813 6.77402 48.1829 7.10976 48.2512 7.46524L48.2562 7.49107V13.7835C48.2562 14.0858 48.1296 14.3669 47.8814 14.6191L47.8714 14.6282L47.8614 14.6373C47.5999 14.8606 47.2818 14.9791 46.9404 14.9791H39.4487L39.4504 14.9806Z" fill="white"/>
<path fill-rule="evenodd" clip-rule="evenodd" d="M109.349 4.50437C109.56 4.31143 109.635 4.10027 109.659 3.86783V1.65591C109.635 1.42043 109.56 1.20927 109.349 1.0695C109.169 0.881124 108.937 0.785415 108.654 0.785415H89.7252C89.442 0.785415 89.2055 0.879604 89.0256 1.0695C88.8441 1.20927 88.7425 1.42043 88.7425 1.65591C88.7225 1.42043 88.6409 1.23357 88.4344 1.0695C88.2528 0.881124 88.0246 0.785415 87.7365 0.785415H81.2791C80.8128 0.785415 80.5346 0.972274 80.3498 1.30042C80.1166 0.947968 79.7585 0.761108 79.2938 0.761108L71.0576 0.785415L65.8644 5.39917V1.65591C65.8411 1.42043 65.7628 1.20927 65.5596 1.0695C65.3764 0.881124 65.1482 0.785415 64.8601 0.785415H59.3604C59.1056 0.785415 58.8707 0.879604 58.6675 1.0695C58.4827 1.20927 58.3777 1.42043 58.3777 1.65591V13.785C58.3777 14.0236 58.4827 14.2286 58.6675 14.4185C58.8707 14.5917 59.1039 14.6783 59.3604 14.6783L62.4317 14.654V14.6783H65.8944V12.8857C65.8644 12.4664 65.7128 12.1139 65.3764 11.8055C65.0166 11.4972 64.6019 11.3331 64.1356 11.3331H61.6306V10.7011H64.1356C64.6036 10.7011 65.0166 10.537 65.3764 10.2286C65.7128 9.94455 65.8644 9.5678 65.8944 9.17129V6.95936H66.5923V9.17129C66.5923 9.5678 66.7738 9.94303 67.1069 10.2286C67.4683 10.537 67.8564 10.7011 68.3478 10.7011H70.8228V11.3331H68.3478C67.8564 11.3331 67.4384 11.4972 67.1069 11.8055C66.7738 12.1139 66.5923 12.4664 66.5923 12.8857V14.6783H79.2938C79.7318 14.6783 80.0699 14.3745 80.2765 13.785C80.2765 14.0236 80.3797 14.2286 80.5563 14.4185C80.7695 14.5917 80.9943 14.6783 81.2791 14.6783H87.7365C88.0246 14.6783 88.2528 14.5917 88.4344 14.4185C88.6409 14.2302 88.7225 14.0236 88.7425 13.785V3.8891C88.7425 4.12457 88.8458 4.31295 89.0256 4.50589C89.2072 4.67148 89.442 4.76719 89.7252 4.76719H95.6845V13.7866C95.6845 14.0251 95.7944 14.2302 95.9977 14.4201C96.1792 14.5932 96.434 14.6798 96.7188 14.6798H102.175C102.455 14.6798 102.687 14.5932 102.895 14.4201C103.076 14.2317 103.178 14.0251 103.178 13.7866V4.76567H108.654C108.936 4.76567 109.169 4.66996 109.349 4.50437ZM80.2765 13.3369L74.054 7.82074L80.2765 2.34106V13.3369ZM129.029 13.8093L121.128 1.20775C120.946 0.946448 120.608 0.783896 120.115 0.783896H113.118C112.63 0.783896 112.29 0.946448 112.144 1.20775L104.24 13.8093C104.061 14.0889 104.036 14.3016 104.166 14.4444C104.285 14.61 104.545 14.6768 104.905 14.6768H112.144C112.375 14.6768 112.523 14.6282 112.63 14.537C112.711 14.4854 112.808 14.373 112.888 14.2286L114.131 12.4649H116.136V10.4398C116.136 10.0144 115.959 9.65895 115.626 9.35511C115.291 9.04672 114.875 8.88569 114.385 8.88569H111.884V8.25067H114.385C114.875 8.25067 115.291 8.10635 115.626 7.7782C115.959 7.49412 116.136 7.12344 116.136 6.71933V4.50589H116.862V6.71933C116.862 7.12344 117.02 7.49564 117.382 7.7782C117.72 8.10635 118.13 8.25067 118.594 8.25067H121.101V8.88569H118.594C118.13 8.88569 117.72 9.0452 117.382 9.35511C117.02 9.65743 116.862 10.0144 116.862 10.4398V12.4649H119.109L120.351 14.2286C120.53 14.5142 120.788 14.6768 121.101 14.6768H128.329C128.717 14.6768 128.976 14.61 129.104 14.4444C129.202 14.3 129.202 14.0889 129.029 13.8093ZM47.6349 1.06798C47.4334 0.879604 47.1969 0.783896 46.942 0.783896H40.9527C40.6646 0.783896 40.438 0.878085 40.2548 1.06798C40.05 1.20775 39.945 1.41891 39.945 1.65439V6.05697L34.2355 1.01937C34.0573 0.85074 33.8008 0.783896 33.486 0.783896H25.9993C25.7428 0.783896 25.5113 0.878085 25.3031 1.06798C25.1216 1.23205 25.0167 1.41891 25.0167 1.65439V13.785C25.0167 14.0236 25.1216 14.2286 25.3031 14.4185C25.513 14.5917 25.7428 14.6783 25.9993 14.6783H31.9903C32.2502 14.6783 32.4817 14.5917 32.6865 14.4185C32.8681 14.2302 32.9697 14.0236 32.9697 13.785V9.37942L38.7025 14.4444C38.8824 14.61 39.1406 14.6768 39.4504 14.6768H46.942C47.1969 14.6768 47.4334 14.5902 47.6349 14.417C47.8215 14.2286 47.9231 14.022 47.9231 13.7835V7.51842C47.8698 7.24041 47.7115 6.95936 47.4567 6.74364C47.0936 6.43373 46.6805 6.27118 46.2192 6.27118H43.7125V5.63312H46.2192C46.6805 5.63312 47.0936 5.46905 47.4567 5.16673C47.7115 4.95405 47.8714 4.69275 47.9231 4.38587V1.65591C47.9231 1.42043 47.8198 1.20927 47.6349 1.0695V1.06798ZM56.8288 1.06798C56.6489 0.879604 56.4174 0.783896 56.1326 0.783896H49.6785C49.3921 0.783896 49.1656 0.878085 48.9557 1.06798C48.7758 1.20775 48.6709 1.41891 48.6709 1.65439V4.10027C48.6709 4.50437 48.8541 4.88113 49.1889 5.16673C49.5453 5.46905 49.9384 5.63312 50.4264 5.63312H52.9031V6.27118H50.4264C49.9384 6.27118 49.5236 6.43373 49.1889 6.74364C48.8541 7.04596 48.6709 7.39841 48.6709 7.82226V13.785C48.6709 14.0236 48.7758 14.2286 48.9557 14.4185C49.1656 14.5917 49.3921 14.6783 49.6785 14.6783H56.1326C56.4174 14.6783 56.6506 14.5917 56.8288 14.4185C57.0353 14.2302 57.1153 14.0236 57.1153 13.785V1.65591C57.1153 1.42043 57.0353 1.20927 56.8288 1.0695V1.06798Z" fill="#0F47C0"/>
<path fill-rule="evenodd" clip-rule="evenodd" d="M7.14857 1.2989C7.74484 0.850747 8.49268 0.647177 9.31879 0.668445C10.1999 0.648696 10.9194 0.850747 11.539 1.2989C12.1369 1.69845 12.4151 2.22409 12.4417 2.81201C12.52 2.75884 12.6249 2.73605 12.7282 2.71174C12.6999 2.28789 12.5466 1.91265 12.2352 1.58451C12.1835 1.5359 12.1352 1.46753 12.0603 1.42044C11.9537 1.32473 11.8504 1.23358 11.7472 1.13635C11.0776 0.688194 10.2765 0.451202 9.31879 0.451202C8.3611 0.451202 7.59161 0.688194 6.94537 1.13635C6.27415 1.61337 5.96103 2.17243 5.96103 2.83328C5.96103 2.97304 5.96103 3.11281 6.01266 3.25713C6.01266 3.30118 6.04098 3.35436 6.04098 3.39689C6.19421 3.8253 6.47902 4.17775 6.94371 4.50437C7.58994 4.97836 8.39108 5.21383 9.31713 5.21383H9.55197C9.57695 5.14091 9.57695 5.06951 9.62525 4.99659H9.31713C8.49101 4.99659 7.74151 4.78998 7.14691 4.36005C6.53231 3.94228 6.24917 3.42576 6.24917 2.83176C6.24917 2.23776 6.53231 1.72124 7.14691 1.2989H7.14857Z" fill="white"/>
<path fill-rule="evenodd" clip-rule="evenodd" d="M9.31878 0.668438C8.49266 0.648689 7.74316 0.85074 7.14856 1.2989C6.53397 1.72123 6.25082 2.22408 6.25082 2.83175C6.25082 3.43942 6.53397 3.94075 7.14856 4.36004C7.74483 4.78997 8.49266 4.99658 9.31878 4.99658H9.62691C9.65522 4.88112 9.70685 4.78997 9.7818 4.69274C10.0183 4.24914 10.4081 3.86783 10.946 3.51234C11.3125 3.25712 11.7222 3.04444 12.1602 2.90467C12.2618 2.85606 12.3434 2.83327 12.4434 2.812C12.4167 2.22408 12.1386 1.69844 11.5406 1.2989C10.921 0.85074 10.2015 0.647169 9.32044 0.668438H9.31878Z" fill="#1D2939"/>
<path fill-rule="evenodd" clip-rule="evenodd" d="M12.0603 1.4189C12.1369 1.46752 12.1836 1.53436 12.2352 1.58298C12.3651 1.44321 12.4983 1.32168 12.6482 1.20774C13.2695 0.783886 13.9957 0.593989 14.8468 0.593989C15.6979 0.593989 16.444 0.783886 17.042 1.20774C17.6599 1.65438 17.9414 2.14659 17.9414 2.75882C17.9414 2.97151 17.9197 3.16444 17.8148 3.37105C17.9197 3.42422 17.9997 3.46828 18.0496 3.51081H18.073C18.2029 3.2799 18.2512 3.02468 18.2512 2.75882C18.2512 2.09798 17.9197 1.53436 17.2518 1.06797C16.6006 0.619815 15.8045 0.378265 14.8468 0.378265C13.8891 0.378265 13.1146 0.618296 12.4434 1.06797C12.3168 1.18343 12.1852 1.29889 12.062 1.4189H12.0603Z" fill="white"/>
<path fill-rule="evenodd" clip-rule="evenodd" d="M14.8468 0.593994C13.9957 0.593994 13.2695 0.783892 12.6482 1.20774C12.4983 1.3232 12.3667 1.44322 12.2352 1.58298C12.5466 1.91112 12.6999 2.28636 12.7282 2.71021C13.2695 2.57045 13.8657 2.5036 14.4837 2.5036C15.7745 2.5036 16.8837 2.78313 17.8131 3.37105C17.918 3.16445 17.9397 2.96999 17.9397 2.75883C17.9397 2.1466 17.6582 1.65438 17.0403 1.20774C16.444 0.783892 15.6979 0.593994 14.8451 0.593994H14.8468Z" fill="#1D2939"/>
<path fill-rule="evenodd" clip-rule="evenodd" d="M18.7708 4.10027C18.566 3.8891 18.3344 3.70072 18.0746 3.51234H18.0513C18.0013 3.46981 17.9214 3.42727 17.8165 3.37258C16.8871 2.78466 15.7778 2.50513 14.487 2.50513C13.8691 2.50513 13.2712 2.57197 12.7315 2.71174C12.6283 2.73604 12.5217 2.76035 12.445 2.812C12.3451 2.83175 12.2635 2.85606 12.1619 2.90467C11.7239 3.04444 11.3141 3.25712 10.9477 3.51234C10.4114 3.86935 10.0217 4.25066 9.78348 4.69275C9.7102 4.78997 9.65856 4.88112 9.62858 4.99658C9.57862 5.0695 9.57862 5.1409 9.5553 5.21382C9.45037 5.44018 9.42372 5.70452 9.45037 5.96126C9.45037 6.62514 9.65856 7.19028 10.1249 7.71591V7.72959C10.3298 7.99089 10.6129 8.22636 10.9477 8.43904C11.9021 9.09989 13.0896 9.42195 14.487 9.42195C15.8844 9.42195 16.962 9.11964 17.943 8.51045C17.9697 8.48158 18.0013 8.46183 18.0513 8.46183V8.43904C18.3861 8.22636 18.6426 7.99089 18.8524 7.72959V7.71591C18.8991 7.68705 18.9274 7.65819 18.954 7.61413C19.029 7.5169 19.1073 7.39689 19.1872 7.30574C19.4154 6.88492 19.547 6.45651 19.547 5.96126C19.547 5.28067 19.2888 4.64413 18.7708 4.10027ZM17.7398 3.5883C17.7915 3.63692 17.8165 3.65515 17.8931 3.6992C17.9214 3.6992 17.943 3.72655 17.943 3.72655C18.2045 3.88758 18.4094 4.079 18.566 4.26738C19.054 4.76415 19.2888 5.32776 19.2888 5.95974C19.2888 6.31523 19.2089 6.64945 19.079 6.93354C19.0273 7.04292 18.9757 7.14014 18.8974 7.2556C18.8275 7.35283 18.7425 7.46829 18.6692 7.56552C18.4594 7.79643 18.2029 8.0319 17.8914 8.24915C17.8681 8.27345 17.8148 8.29776 17.7915 8.31599C16.8588 8.90847 15.7762 9.18344 14.4853 9.18344C13.1945 9.18344 12.032 8.88416 11.1009 8.24763C10.7911 8.03039 10.533 7.79491 10.3265 7.564C9.91173 7.09001 9.70686 6.57501 9.70686 5.95822C9.68521 5.70148 9.73185 5.42347 9.83345 5.18648C9.86343 5.11356 9.88841 5.04216 9.91173 4.97531C9.93838 4.89632 9.96336 4.85378 10.0183 4.78694C10.2498 4.38283 10.6096 4.01063 11.1009 3.69768C11.4357 3.44094 11.8238 3.25408 12.2602 3.10824C12.3151 3.09001 12.3668 3.06419 12.4151 3.06419C12.5183 3.02013 12.6249 2.99126 12.7282 2.96696C13.2695 2.80744 13.8658 2.73148 14.4837 2.73148C15.7462 2.73148 16.8055 3.02013 17.7382 3.58526L17.7398 3.5883Z" fill="#1D2939"/>
<path fill-rule="evenodd" clip-rule="evenodd" d="M17.8914 3.70073C17.8148 3.65668 17.7915 3.63693 17.7382 3.58983C16.8055 3.02622 15.7462 2.73605 14.4837 2.73605C13.8658 2.73605 13.2678 2.81201 12.7282 2.97153C12.6249 2.99583 12.5183 3.0247 12.4151 3.06875C12.3651 3.06875 12.3135 3.09306 12.2602 3.11281C11.8238 3.25713 11.4357 3.44551 11.1009 3.70225C10.6113 4.0152 10.2498 4.38588 10.0183 4.7915C9.96503 4.85835 9.94004 4.9024 9.91173 4.97988C9.88841 5.04673 9.86176 5.11813 9.83345 5.19105C9.73185 5.42804 9.68521 5.70757 9.70686 5.96279C9.70686 6.57958 9.91173 7.09458 10.3265 7.56856C10.533 7.79948 10.7911 8.03495 11.1009 8.25219C12.032 8.88721 13.1662 9.18801 14.4853 9.18801C15.8045 9.18801 16.8588 8.91304 17.7915 8.32056C17.8148 8.30233 17.8681 8.2765 17.8914 8.25371C18.2029 8.03647 18.4594 7.801 18.6692 7.57008C18.7425 7.47286 18.8275 7.3574 18.8974 7.26017C18.9757 7.14471 19.0273 7.04748 19.079 6.9381C19.2089 6.65402 19.2888 6.3198 19.2888 5.96431C19.2888 5.33233 19.054 4.76872 18.566 4.27194C18.4094 4.08357 18.2045 3.89215 17.943 3.73112C17.943 3.73112 17.9214 3.70377 17.8931 3.70377L17.8914 3.70073Z" fill="#FFCA41"/>
<path fill-rule="evenodd" clip-rule="evenodd" d="M19.1855 7.30724C19.1056 7.39839 19.0273 7.51841 18.9524 7.61564V7.82225C18.9524 9.11963 18.0496 10.2529 16.2175 11.169C14.4071 12.1139 12.1852 12.5818 9.60359 12.5818C7.02198 12.5818 4.82511 12.1139 2.993 11.169C1.18754 10.2529 0.256496 9.11963 0.256496 7.82225C0.256496 6.52487 1.18754 5.37333 2.99467 4.43296C3.92405 3.9848 4.93004 3.63691 6.04264 3.39688C6.04264 3.35282 6.01432 3.30117 6.01432 3.25711C4.82678 3.4941 3.77082 3.86934 2.81146 4.36155C0.954363 5.30497 0 6.4565 0 7.82225C0 9.18799 0.954363 10.3259 2.81146 11.2647C4.15556 11.9438 5.65456 12.3965 7.38341 12.5803C8.07961 12.6775 8.80246 12.7003 9.60359 12.7003C10.5613 12.7003 11.464 12.6517 12.3418 12.5135C13.8374 12.3069 15.2049 11.8769 16.3941 11.2647C18.2778 10.3243 19.2089 9.17128 19.2089 7.82225C19.2089 7.63539 19.2089 7.4698 19.1872 7.30724H19.1855Z" fill="#1D2939"/>
<path fill-rule="evenodd" clip-rule="evenodd" d="M18.0496 8.46335C17.9997 8.46335 17.968 8.4831 17.9414 8.51197C16.9587 9.11964 15.8278 9.42347 14.4853 9.42347C13.1429 9.42347 11.8987 9.10141 10.946 8.44057C10.6113 8.22788 10.3281 7.99241 10.1233 7.73111V7.71743C9.6569 7.1918 9.44871 6.62666 9.44871 5.96278C9.42206 5.70604 9.44871 5.4417 9.55364 5.21535H9.31879C8.39274 5.21535 7.59161 4.97987 6.94537 4.50589C6.47902 4.17927 6.19587 3.82682 6.04264 3.39841C4.93005 3.63844 3.92406 3.98633 2.99467 4.43449C1.18755 5.37334 0.2565 6.50665 0.2565 7.82226C0.2565 9.13787 1.18755 10.2529 2.99467 11.169C4.82679 12.1139 7.02199 12.5818 9.60527 12.5818C12.1885 12.5818 14.4071 12.1139 16.2192 11.169C18.0513 10.2529 18.954 9.12116 18.954 7.82226V7.61565C18.9257 7.65971 18.8991 7.68857 18.8524 7.71743V7.73111C18.6426 7.99241 18.3861 8.22788 18.0513 8.44057V8.46335H18.0496Z" fill="#00BA85"/>
</g>
<defs>
<clipPath id="clip0_40007007_973">
<rect width="130" height="16" fill="white"/>
</clipPath>
</defs>
</svg>
