<svg width="70" height="20" viewBox="0 0 70 20" fill="none" xmlns="http://www.w3.org/2000/svg">
<path d="M17.939 19.5455H15.7513L15.2318 17.2995C14.3202 18.3155 13.4087 19.0196 12.4972 19.4118C11.5856 19.8039 10.5374 20 9.35236 20C7.8939 20 6.58129 19.7415 5.41453 19.2246C4.26599 18.6898 3.29065 17.9679 2.48849 17.0588C1.68634 16.1497 1.0665 15.0891 0.62896 13.877C0.209653 12.6649 0 11.3725 0 10C0 8.64528 0.209653 7.36185 0.62896 6.14973C1.0665 4.93761 1.68634 3.87701 2.48849 2.96791C3.29065 2.05882 4.26599 1.3369 5.41453 0.802138C6.58129 0.267379 7.8939 0 9.35236 0C10.4097 0 11.4124 0.142602 12.3604 0.427807C13.3267 0.695186 14.1835 1.10517 14.931 1.65775C15.6784 2.19251 16.2983 2.86987 16.7905 3.68984C17.2827 4.5098 17.5926 5.45454 17.7203 6.52406H14.384C14.2929 5.90018 14.0924 5.35651 13.7824 4.89305C13.4907 4.41176 13.117 4.01069 12.6612 3.68984C12.2055 3.36898 11.695 3.12834 11.1299 2.96791C10.5647 2.80749 9.97221 2.72727 9.35236 2.72727C8.31321 2.72727 7.41079 2.93226 6.6451 3.34225C5.89764 3.75223 5.28691 4.30481 4.81291 5C4.33891 5.67736 3.98341 6.45276 3.74641 7.3262C3.52765 8.19964 3.41826 9.09091 3.41826 10C3.41826 10.9091 3.52765 11.8004 3.74641 12.6738C3.98341 13.5472 4.33891 14.3316 4.81291 15.0267C5.28691 15.7041 5.89764 16.2478 6.6451 16.6578C7.41079 17.0677 8.31321 17.2727 9.35236 17.2727C10.2274 17.2906 11.0022 17.1836 11.6768 16.9519C12.3513 16.7023 12.9165 16.3547 13.3722 15.9091C13.8462 15.4456 14.2017 14.8841 14.4387 14.2246C14.6757 13.5651 14.8033 12.8342 14.8216 12.0321H9.62582V9.49198H17.939V19.5455Z" fill="#777F88"/>
<path d="M21.2148 5.72193H24.1682V7.64706H24.2502C24.4872 7.30838 24.7424 6.99643 25.0159 6.71123C25.2894 6.42602 25.5902 6.18538 25.9183 5.9893C26.2647 5.79323 26.6567 5.64171 27.0942 5.53476C27.5317 5.40998 28.0331 5.34759 28.5982 5.34759C29.4551 5.34759 30.2481 5.53476 30.9774 5.90909C31.7248 6.28342 32.2535 6.86274 32.5634 7.64706C33.0921 6.93405 33.7028 6.37255 34.3956 5.96257C35.0884 5.55258 35.9543 5.34759 36.9935 5.34759C38.4884 5.34759 39.6461 5.7041 40.4664 6.41711C41.3051 7.13012 41.7244 8.32442 41.7244 10V19.5455H38.6069V11.4706C38.6069 10.918 38.5887 10.4189 38.5522 9.97326C38.5158 9.5098 38.4064 9.11765 38.2241 8.79679C38.06 8.45811 37.8048 8.19964 37.4584 8.02139C37.112 7.84314 36.638 7.75401 36.0364 7.75401C34.979 7.75401 34.2133 8.07487 33.7393 8.71658C33.2653 9.35829 33.0283 10.2674 33.0283 11.4439V19.5455H29.9109V10.6684C29.9109 9.70588 29.7285 8.98396 29.3639 8.50267C29.0175 8.00357 28.3704 7.75401 27.4224 7.75401C27.0213 7.75401 26.6293 7.83422 26.2465 7.99465C25.8819 8.15508 25.5537 8.38681 25.262 8.68984C24.9886 8.99287 24.7607 9.3672 24.5784 9.81283C24.4143 10.2585 24.3323 10.7665 24.3323 11.3369V19.5455H21.2148V5.72193Z" fill="#777F88"/>
<path d="M56.8499 16.4706C56.8499 16.8449 56.8955 17.1123 56.9867 17.2727C57.0961 17.4332 57.2966 17.5134 57.5883 17.5134C57.6794 17.5134 57.7888 17.5134 57.9165 17.5134C58.0441 17.5134 58.1899 17.4955 58.354 17.4599V19.5722C58.2446 19.6078 58.0988 19.6435 57.9165 19.6791C57.7524 19.7326 57.5792 19.7772 57.3969 19.8128C57.2146 19.8485 57.0323 19.8752 56.8499 19.893C56.6676 19.9109 56.5127 19.9198 56.3851 19.9198C55.747 19.9198 55.2183 19.795 54.799 19.5455C54.3797 19.2959 54.1062 18.8592 53.9786 18.2353C53.3588 18.8235 52.5931 19.2513 51.6815 19.5187C50.7882 19.7861 49.9223 19.9198 49.0837 19.9198C48.4456 19.9198 47.8349 19.8307 47.2515 19.6524C46.6681 19.492 46.1485 19.2513 45.6928 18.9305C45.2552 18.5918 44.8997 18.1729 44.6263 17.6738C44.371 17.1569 44.2434 16.5597 44.2434 15.8824C44.2434 15.0267 44.3984 14.3316 44.7083 13.7968C45.0364 13.262 45.4557 12.8431 45.9662 12.5401C46.4949 12.2371 47.0783 12.0232 47.7164 11.8984C48.3727 11.7558 49.029 11.6488 49.6853 11.5775C50.2504 11.4706 50.7882 11.3993 51.2987 11.3636C51.8092 11.3102 52.2558 11.2299 52.6387 11.123C53.0397 11.016 53.3497 10.8556 53.5684 10.6417C53.8054 10.41 53.9239 10.0713 53.9239 9.62567C53.9239 9.23351 53.8237 8.91266 53.6231 8.6631C53.4408 8.41355 53.2038 8.22638 52.9121 8.1016C52.6387 7.959 52.3287 7.86987 51.9823 7.83422C51.636 7.78075 51.3078 7.75401 50.9979 7.75401C50.1228 7.75401 49.4027 7.93226 48.8375 8.28877C48.2724 8.64528 47.9534 9.19786 47.8804 9.94652H44.763C44.8177 9.05526 45.0364 8.31551 45.4193 7.72727C45.8021 7.13904 46.2852 6.66667 46.8686 6.31016C47.4702 5.95365 48.1448 5.7041 48.8922 5.5615C49.6397 5.41889 50.4054 5.34759 51.1893 5.34759C51.8821 5.34759 52.5657 5.41889 53.2403 5.5615C53.9148 5.7041 54.5164 5.93583 55.0451 6.25668C55.592 6.57754 56.0296 6.99643 56.3577 7.51337C56.6859 8.01248 56.8499 8.62745 56.8499 9.35829V16.4706ZM53.7325 12.6203C53.2585 12.9234 52.6751 13.1105 51.9823 13.1818C51.2896 13.2353 50.5968 13.3244 49.904 13.4492C49.5759 13.5027 49.2569 13.5829 48.9469 13.6898C48.637 13.779 48.3635 13.9127 48.1265 14.0909C47.8895 14.2513 47.6981 14.4742 47.5523 14.7594C47.4247 15.0267 47.3609 15.3565 47.3609 15.7487C47.3609 16.0873 47.4611 16.3725 47.6617 16.6043C47.8622 16.836 48.0992 17.0232 48.3727 17.1658C48.6644 17.2906 48.9743 17.3797 49.3024 17.4332C49.6488 17.4866 49.9587 17.5134 50.2322 17.5134C50.5786 17.5134 50.9523 17.4688 51.3534 17.3797C51.7545 17.2906 52.1282 17.139 52.4746 16.9251C52.8392 16.7112 53.14 16.4439 53.377 16.123C53.614 15.7843 53.7325 15.3743 53.7325 14.893V12.6203Z" fill="#777F88"/>
<path d="M60.2864 0.454544H63.4038V3.34225H60.2864V0.454544ZM60.2864 5.72193H63.4038V19.5455H60.2864V5.72193Z" fill="#777F88"/>
<path d="M66.8825 0.454544H70V19.5455H66.8825V0.454544Z" fill="#777F88"/>
</svg>
