<svg width="89" height="30" viewBox="0 0 89 30" fill="none" xmlns="http://www.w3.org/2000/svg">
<path d="M25.3066 24.7295C26.1874 24.7295 26.922 25.0502 27.4033 25.6318L26.6455 26.3301C26.3031 25.9369 25.8741 25.7334 25.3652 25.7334C24.412 25.7335 23.7344 26.4033 23.7344 27.3643C23.7345 28.325 24.4121 28.9941 25.3652 28.9941C25.8741 28.9941 26.3047 28.7909 26.6455 28.3916L27.4033 29.0898C26.9236 29.6791 26.1877 29.9999 25.3008 30C23.7197 29.9984 22.5412 28.899 22.541 27.3643C22.541 25.8294 23.7193 24.7296 25.3066 24.7295ZM31.457 24.7295C33.0582 24.7295 34.2441 25.8433 34.2441 27.3643C34.244 28.885 33.0581 29.999 31.457 29.999C29.8482 29.999 28.6701 28.8773 28.6699 27.3643C28.6699 25.8509 29.8481 24.7295 31.457 24.7295ZM51.8936 29.9121H50.6562L50.2061 28.8203H47.8408L47.3887 29.9121H46.1807L48.4521 24.8184H49.6162L51.8936 29.9121ZM88.3379 29.9121H87.1016L86.6475 28.8203H84.2822L83.832 29.9121H82.625L84.8955 24.8184H86.0596L88.3379 29.9121ZM4.46875 25.7783H2.83887V29.9111H1.66016V25.7783H0.0292969V24.8174H4.46875V25.7783ZM9.85254 25.7627H7.17676V26.8691H9.54102V27.7852H7.17676V28.9639H9.94824V29.9111H6.00391V24.8174H9.85254V25.7627ZM12.9688 28.9502H15.5234V29.9111H11.791V24.8174H12.9688V28.9502ZM20.9375 25.7627H18.2598V26.8691H20.624V27.7852H18.2598V28.9639H21.0332V29.9111H17.0889V24.8174H20.9375V25.7627ZM38.916 27.9824L40.7939 24.8174H41.7607L41.7744 29.9111H40.6699L40.6621 26.8545L39.1631 29.3721H38.6328L37.1406 26.9199V29.9111H36.0342V24.8174H37.0098L38.916 27.9824ZM55.5332 24.8174C56.8936 24.8174 57.745 25.5221 57.7451 26.665C57.7451 27.4285 57.3599 27.9906 56.6982 28.2744L57.8408 29.9111H56.5732L55.5908 28.4912H54.5078V29.9111H53.3291V24.8174H55.5332ZM62.4609 27.9824L64.3379 24.8174H65.3076L65.3213 29.9111H64.2148L64.207 26.8545L62.708 29.3721H62.1777L60.6855 26.9199V29.9111H59.5791V24.8174H60.5547L62.4609 27.9824ZM71.2812 25.7627H68.6035V26.8691H70.9688V27.7852H68.6035V28.9639H71.377V29.9111H67.4326V24.8174H71.2812V25.7627ZM76.7285 27.9102V24.8174H77.8916V29.9111H76.9248L74.3857 26.8184V29.9111H73.2207V24.8174H74.1953L76.7285 27.9102ZM81.1807 29.9111H80.002V24.8174H81.1807V29.9111ZM31.457 25.7334C30.5469 25.7334 29.8633 26.3955 29.8633 27.3643C29.8634 28.3328 30.547 28.9941 31.457 28.9941C32.367 28.9941 33.0506 28.3327 33.0508 27.3643C33.0508 26.3955 32.3671 25.7334 31.457 25.7334ZM48.2168 27.9238H49.834L49.0254 25.9746L48.2168 27.9238ZM84.6592 27.9238H86.2754L85.4678 25.9746L84.6592 27.9238ZM54.5059 27.5537H55.4668C56.1871 27.5537 56.5518 27.2188 56.5518 26.665C56.5517 26.1052 56.1871 25.7783 55.4668 25.7783H54.5059V27.5537ZM7.90234 3.77148H11.2959V7.71484H7.90234V13.8867C7.90241 14.4187 8.03961 14.8292 8.33105 15.1377C8.60555 15.4461 8.99926 15.5829 9.46191 15.583C10.0619 15.583 10.5933 15.4287 11.0391 15.1201L12.9258 18.3955C11.5884 19.2362 10.286 19.5957 8.70801 19.5957C6.77053 19.5957 5.29533 19.1154 4.25098 18.1729C3.20535 17.2304 2.69141 15.8063 2.69141 13.9385V7.71484H0V3.77148H0.120117C1.59483 3.77148 2.72596 2.57107 2.70898 1.13184V0H7.90234V3.77148ZM21.0869 3.7373C22.5617 3.7373 23.8995 4.04638 25.0996 4.64648C26.2996 5.26348 27.2595 6.13765 27.9629 7.30371C29.0242 9.06831 29.0578 11.0062 28.9375 12.9775H17.709C18.1887 14.6744 20.1433 15.6357 21.8232 15.6357C22.5268 15.6357 24.154 15.5677 25.6455 14.1611L27.6172 17.5547C26.195 18.909 24.2234 19.5771 21.6689 19.5771C19.9382 19.5771 18.4104 19.2516 17.1084 18.6006C15.7712 17.9497 14.7422 17.0411 14.0234 15.875C13.3031 14.7089 12.9444 13.1152 12.9443 11.6406C12.9443 10.1829 13.2859 8.60559 13.9893 7.43945C14.6926 6.29028 15.6524 5.38177 16.9033 4.71387C18.1374 4.06296 19.5429 3.73734 21.0869 3.7373ZM37.3213 3.7373C39.7725 3.7373 41.6594 4.30424 42.9443 5.41797C44.229 6.53171 44.8818 8.26384 44.8818 10.5605V15.3779H46.0137V19.3213H40.0459V17.4004C39.2916 18.8412 37.835 19.5596 35.6738 19.5596C34.5261 19.5596 33.5312 19.3548 32.6904 18.96C31.8498 18.565 31.216 18.0174 30.7871 17.3311C30.3583 16.6446 30.1533 15.6002 30.1533 14.7256C30.1533 13.3203 30.6849 11.9656 31.7646 11.1943C32.8444 10.4231 34.4905 10.0284 36.7363 10.0283H40.0459C39.9611 8.46887 39.0167 7.67878 36.5488 7.67871C35.8454 7.67871 35.126 7.79934 34.3887 8.02148C33.7717 8.20963 33.2225 8.46754 32.7598 8.79297L30.8057 5.41602C31.6108 4.88393 32.6055 4.45657 33.7715 4.16504C34.9546 3.89199 36.1381 3.73731 37.3213 3.7373ZM83.3506 8.96582C86.2137 8.96601 88.5438 11.2964 88.5439 14.1592C88.5439 17.0221 86.2138 19.3533 83.3506 19.3535C80.4879 19.3535 78.1572 17.0222 78.1572 14.1592C78.1552 11.2808 80.488 8.96582 83.3506 8.96582ZM67.1504 3.7373C68.9676 3.73732 70.4252 4.28702 71.5049 5.38379C72.5845 6.48057 73.1338 8.12626 73.1338 10.3213V15.3965H74.2646V19.3398H67.9385V10.166C67.9385 8.81165 66.8417 7.71484 65.4873 7.71484C64.133 7.71489 63.0361 8.81168 63.0361 10.166V19.3359H57.9102V10.166C57.9102 8.81165 56.8134 7.71484 55.459 7.71484C54.1046 7.71488 53.0078 8.81167 53.0078 10.166V19.3359H47.8652V7.71484H46.7324V3.77148H52.8008V5.33105C53.7432 4.3022 55.8693 3.75493 57.2236 3.75488C58.2695 3.75488 59.1948 3.94337 60.0186 4.32129C60.8408 4.69767 61.5101 5.28057 62.0068 6.07031C62.5899 5.31598 63.3281 4.74982 64.2197 4.35645C65.1098 3.94312 66.0876 3.7373 67.1504 3.7373ZM37.6113 12.9609C36.3942 12.9609 35.3486 13.4237 35.3486 14.5205C35.3502 15.7374 36.1385 16.251 37.2861 16.251C37.8861 16.2509 38.6066 16.0972 39.0693 15.8057C39.5321 15.5141 39.8577 15.085 40.0459 14.5205V12.9609H37.6113ZM23.8281 8.93164C22.8332 7.38908 20.7596 6.96037 19.1816 7.98926C18.4106 8.48591 17.8968 9.23998 17.707 10.0635H24.291V10.0625C24.2047 9.66762 24.0688 9.29103 23.8281 8.93164ZM82.6113 4.66309H81.4111V7.71387H80.2969V4.66309H79.0801V3.77148H82.6113V4.66309ZM85.3545 6.05176L86.708 3.77148H87.6338L87.6504 7.71387H86.6064L86.5898 5.62305L85.5781 7.31934H85.0811L84.0693 5.67383V7.71289H83.04V3.77148H83.9658L85.3545 6.05176Z" fill="#777F88"/>
</svg>
