<svg width="89" height="44" viewBox="0 0 89 44" fill="none" xmlns="http://www.w3.org/2000/svg">
<g clip-path="url(#clip0_40007034_1322)">
<path d="M37.5023 43.9471C34.1899 43.7838 32.4345 41.7731 33.0405 38.4084C33.97 33.2493 38.4091 30.9419 43.3275 31.7405C45.5488 32.1011 46.8609 33.3257 46.993 35.6685L42.6274 36.2653C42.5524 34.1892 39.9924 34.5133 38.8563 35.5656C37.6823 36.6524 36.5108 40.2883 38.6828 40.8816C40.0959 41.2677 41.477 40.3302 42.12 39.1081C43.3438 39.2455 44.5804 39.3418 45.7998 39.5141C45.891 39.5271 46.2732 39.5636 46.2732 39.6325C45.1746 41.6982 43.3926 43.2469 41.1003 43.7733L39.8676 43.9971H39.6211C39.5432 43.9576 39.4529 43.9571 39.3745 43.9971H38.1424C38.0398 43.9781 37.9412 43.9616 37.8465 43.9471C37.7449 43.9866 37.6059 43.9901 37.5014 43.9471H37.5023Z" fill="#777F88"/>
<path d="M53.6425 16.1112C51.8478 5.75544 39.3207 0.635263 30.0874 0.0978736C28.653 0.013969 26.5067 -0.0679379 25.1078 0.149315C23.8914 0.338101 24.4032 1.79894 24.2908 2.66446C24.1991 3.37465 23.6148 3.86259 22.9338 3.93451C21.8387 4.05038 20.3605 3.93601 19.2456 3.88906C18.6663 3.86459 17.9237 3.95848 17.3932 3.66881C17.0889 3.503 17.046 3.19885 16.7048 3.069C16.5101 2.99408 16.2034 2.95463 15.9933 2.94114C14.519 2.84525 12.9437 3.01656 11.458 2.94364C10.9053 2.98809 10.4462 3.39513 10.3959 3.96348C10.3195 4.8285 10.32 6.54504 10.3959 7.40956C10.4329 7.82859 10.6937 8.21265 11.0892 8.35449C11.8007 8.6087 13.0447 8.0778 13.204 9.26096C12.9861 10.5785 13.026 12.0348 12.8076 13.3388C12.6956 14.0081 12.2509 14.5829 11.5566 14.6658C11.3377 14.6923 10.9999 14.7078 10.7702 14.7178C8.24317 14.8286 5.6417 14.6014 3.11371 14.7497C2.23801 15.0289 2.11967 16.0487 2.02648 16.8418C1.25728 23.4059 5.42623 28.7858 10.6484 32.0456C13.737 33.9739 17.2783 35.2834 20.8457 35.9661C20.3827 37.5443 19.6687 39.0286 18.932 40.489L17.8399 42.4008C21.641 41.0498 25.342 39.2683 28.4691 36.6743C29.7767 36.6508 31.0814 36.5559 32.3777 36.3906C33.5374 33.3031 36.3139 31.0472 39.5544 30.5852C40.7417 30.4164 42.2471 30.4094 43.4324 30.5867C44.3422 30.7226 45.1814 31.0042 45.9826 31.4542C50.9701 28.0531 54.7456 22.4734 53.6425 16.1112ZM30.0075 25.511C27.6748 26.9603 24.1098 26.8669 21.4674 26.5318C17.2068 25.9909 14.7029 23.3979 14.8311 18.9285L16.0278 7.31966C16.1191 6.91063 16.3996 6.68389 16.7931 6.59399C18.4838 6.95708 20.3634 7.04548 22.03 7.45601C22.4763 7.56588 22.7198 7.7297 22.8121 8.21015C22.5241 11.8425 21.8673 15.4564 21.5414 19.0863C21.3614 21.0925 22.1701 22.4535 24.2686 22.5993C26.4628 22.7516 27.8064 21.8976 28.1811 19.6716C28.7245 16.4478 28.8798 13.0102 29.4839 9.81683C29.6032 9.18604 29.828 8.83894 30.5282 8.87989C31.754 8.95231 33.1622 9.42777 34.4077 9.54264C34.6897 9.59008 34.8884 9.79335 34.9777 10.063C34.5403 13.185 34.1735 16.3559 33.6503 19.4708C33.2066 22.1118 32.3279 24.0691 30.0075 25.511ZM39.1688 25.3067C38.4036 26.783 35.3406 27.0667 34.5541 25.506C33.8392 24.0876 35.6073 23.0143 36.8026 22.9114C38.1403 22.7961 39.9844 23.734 39.1688 25.3067ZM40.3123 20.628C39.8932 21.8651 38.9326 22.1653 37.7246 22.0979C36.8085 22.0464 35.5418 21.7992 35.4328 20.676C35.7794 17.6145 36.0516 14.5045 36.5235 11.4555C36.5575 11.2347 36.5777 10.997 36.6507 10.7857C36.8874 10.1005 37.7754 9.80933 38.4282 9.74191C39.6003 9.62105 41.1633 9.88874 42.18 10.5045C42.6775 10.8057 43.1746 11.2562 43.1706 11.8965L40.3123 20.628Z" fill="#777F88"/>
<path d="M69.4358 31.8752L69.0414 33.4709C69.1188 33.4899 69.1553 33.4554 69.2149 33.4225C69.6173 33.2002 70.1059 32.6788 70.5729 32.4026C72.3637 31.3453 75.9444 30.9573 76.5815 33.5708C76.6574 33.5918 76.6633 33.5493 76.7043 33.5214C77.289 33.1198 77.7649 32.6209 78.4202 32.2653C80.7568 30.9982 84.6349 31.3378 84.268 34.8424C83.7508 37.8474 82.8554 40.7726 82.1986 43.7472H77.7141L79.4379 36.4385C79.324 34.25 76.686 35.2903 76.2758 36.7797C75.5825 39.0695 75.1244 41.4329 74.5106 43.7472H70.026L71.6774 36.9135C72.2409 34.8184 70.0941 34.701 69.0414 36.0415C68.6716 36.5125 68.4847 37.1382 68.3254 37.7111C67.8092 39.567 67.5104 41.726 66.9182 43.52C66.9014 43.5704 66.8482 43.7472 66.7979 43.7472H62.3873L65.2457 31.8752H69.4344H69.4358Z" fill="#777F88"/>
<path d="M6.34442 9.2405C7.50808 9.31592 8.89066 9.09866 10.0287 9.22852C10.6283 9.29694 10.9492 9.7714 10.9917 10.3487C11.0272 10.8307 11.0493 12.355 10.8856 12.7395C10.7037 13.1665 10.3758 13.3373 9.93253 13.3708C9.05189 13.4377 7.28964 13.4627 6.4312 13.3688C5.91446 13.3124 5.53676 12.9073 5.47611 12.3904C5.42138 11.923 5.41547 10.6669 5.47464 10.2054C5.53578 9.72995 5.88537 9.34788 6.34442 9.2405Z" fill="#777F88"/>
<path d="M5.4574 4.35157C5.93519 4.27066 7.60227 4.28215 8.10718 4.33959C9.0884 4.45146 9.09284 5.6461 9.01838 6.40924C8.96217 6.98308 8.58497 7.41909 8.00906 7.48252C7.46076 7.54295 6.19651 7.53795 5.64378 7.48152C4.56247 7.37164 4.53929 6.18149 4.6384 5.31748C4.68919 4.87448 5.00229 4.42849 5.45789 4.35107L5.4574 4.35157Z" fill="#777F88"/>
<path d="M20.3911 0.06395C20.8595 0.00451754 22.3964 -0.00547111 22.8067 0.134869C23.1873 0.265221 23.4171 0.623814 23.4565 1.02336C23.5241 1.70658 23.5344 2.8348 22.6454 2.94468C22.1504 3.00561 20.7796 3.00061 20.2787 2.94368C19.9301 2.90422 19.5455 2.55212 19.4769 2.20901C19.4311 1.97927 19.4375 1.0753 19.4774 0.835573C19.5509 0.396572 19.9799 0.11689 20.3911 0.0644494V0.06395Z" fill="#777F88"/>
<path d="M3.38257 10.4077C3.21098 10.586 2.97775 10.6559 2.73664 10.6769C2.28005 10.7168 1.30919 10.7263 0.86197 10.6754C0.444335 10.6279 0.110524 10.3238 0.0533271 9.89774C0.0222634 9.668 0.0222634 9.08866 0.0533271 8.85892C0.105593 8.47186 0.424119 8.12625 0.812662 8.0813C1.26383 8.02936 2.37965 8.03136 2.83328 8.0813C3.09264 8.10977 3.37468 8.27258 3.49992 8.50382C3.73413 8.93683 3.73512 10.0411 3.38207 10.4077H3.38257Z" fill="#777F88"/>
<path d="M51.0809 33.3738C54.5976 30.6377 62.2731 30.6019 61.8456 36.6384C61.563 40.6254 58.0366 43.8047 54.1581 43.948C54.0828 43.9879 53.9841 43.9853 53.912 43.947C53.7885 43.9605 53.6576 43.9769 53.5184 43.9968H53.2225C53.0787 43.9539 52.9226 43.954 52.7792 43.9968C52.6821 43.9903 52.5798 44.0063 52.4833 43.9968C46.2858 43.391 47.1935 36.3988 51.0809 33.3738ZM56.3114 34.8591C55.4032 34.5326 54.3355 35.002 53.7137 35.6902C52.8423 36.6558 51.9497 39.4549 52.993 40.4871C53.8337 41.3176 55.3019 40.836 56.0311 40.0808C57.0207 39.0554 58.1367 35.5144 56.3114 34.8591Z" fill="#777F88"/>
<path d="M83.295 29.1945C81.9411 25.5486 87.2789 23.3978 88.7911 26.9738L88.9991 27.6349L89.0001 28.6827C88.4038 31.6121 84.3537 32.0435 83.295 29.1945ZM85.9347 25.505C82.6074 25.6468 82.782 31.0627 86.3624 30.7267C89.492 30.433 89.2654 25.3637 85.9347 25.505Z" fill="#777F88"/>
<path d="M84.8604 26.2885C85.3371 26.3294 85.8979 26.2326 86.3633 26.2885C87.664 26.4443 87.7299 27.9412 86.5859 28.3588L87.5742 29.8021L87.6201 29.9799C87.4111 29.9559 87.0906 30.038 86.9111 29.9242C86.6794 29.7769 86.186 28.6758 85.9932 28.558C85.8806 28.49 85.6369 28.554 85.501 28.5336V29.9047C85.501 30.0265 84.9713 29.9674 84.8604 29.9799V26.2885ZM85.501 26.7875V28.0345C86.1231 28.0975 86.9709 27.9928 86.7109 27.1342C86.6617 26.9719 86.3658 26.7877 86.2158 26.7875H85.501Z" fill="#777F88"/>
</g>
<defs>
<clipPath id="clip0_40007034_1322">
<rect width="89" height="44" fill="white"/>
</clipPath>
</defs>
</svg>
