<svg width="81" height="20" viewBox="0 0 81 20" fill="none" xmlns="http://www.w3.org/2000/svg">
<path fill-rule="evenodd" clip-rule="evenodd" d="M46.795 15.8234L38.8632 0.121636H34.4355C37.3184 5.73102 40.2345 11.405 43.0782 16.9385C44.1797 19.0853 45.4567 19.9929 47.1201 20C48.7838 19.9929 50.0605 19.0853 51.1623 16.9385C54.0062 11.4053 56.9221 5.73102 59.805 0.121636H55.3773L47.4458 15.8234C47.3033 16.1054 46.9372 16.1054 46.7947 15.8234H46.795ZM67.4994 4.17627L59.5679 19.8781H55.1402C58.0231 14.2687 60.9392 8.59469 63.7829 3.06123C64.8847 0.914671 66.1614 0.00705547 67.8251 0C69.4888 0.00705547 70.7655 0.914671 71.8673 3.06151C74.711 8.59469 77.6271 14.269 80.51 19.8784H76.0823L68.1508 4.17656C68.0083 3.89462 67.6422 3.89462 67.4997 4.17656L67.4994 4.17627ZM27.8897 19.8781V0.121636H31.9153V19.8781H27.8897ZM12.3592 15.8234L4.42773 0.121636H0C2.88287 5.73102 5.79903 11.405 8.64267 16.9385C9.74417 19.0853 11.0212 19.9929 12.6849 20C14.3486 19.9929 15.6253 19.0853 16.7271 16.9385C19.5707 11.405 22.4869 5.73102 25.3698 0.121636H20.942L13.0106 15.8234C12.8681 16.1054 12.502 16.1054 12.3595 15.8234H12.3592Z" fill="#777F88"/>
</svg>
