<svg width="73" height="73" viewBox="0 0 73 73" fill="none" xmlns="http://www.w3.org/2000/svg">
<g filter="url(#filter0_d_40007084_7949)">
<g clip-path="url(#clip0_40007084_7949)">
<rect x="12" y="22.3525" width="40" height="40" transform="rotate(-15 12 22.3525)" fill="#E61D5B"/>
<g clip-path="url(#clip1_40007084_7949)">
<path d="M45.203 30.3564C45.4022 31.1002 45.4708 31.8583 45.4086 32.6307C45.3464 33.4031 45.1214 34.302 44.7187 35.3106C44.3186 36.3288 43.7319 37.5006 42.9541 38.8478C42.1762 40.195 41.163 41.8227 39.9337 43.7258L38.8695 45.3568L37.1325 44.4763C35.1163 43.443 33.4346 42.5374 32.0874 41.7595C30.7402 40.9817 29.6365 40.2629 28.7809 39.5811C27.9279 38.909 27.2836 38.243 26.8435 37.6052C26.4034 36.9674 26.0837 36.2766 25.8844 35.5328C25.4781 34.0163 25.651 32.6138 26.3934 31.3278C27.1359 30.0418 28.257 29.2031 29.7735 28.7967C30.6139 28.5715 31.4525 28.5332 32.3114 28.6861C33.1606 28.8416 33.9397 29.1608 34.6637 29.6605C35.0409 28.8658 35.5561 28.1997 36.2234 27.6379C36.881 27.0786 37.6265 26.6925 38.4669 26.4673C39.9834 26.061 41.3833 26.2242 42.6693 26.9667C43.9553 27.7091 44.7966 28.8399 45.203 30.3564Z" fill="white"/>
</g>
</g>
</g>
<defs>
<filter id="filter0_d_40007084_7949" x="0" y="0" width="72.9897" height="72.9897" filterUnits="userSpaceOnUse" color-interpolation-filters="sRGB">
<feFlood flood-opacity="0" result="BackgroundImageFix"/>
<feColorMatrix in="SourceAlpha" type="matrix" values="0 0 0 0 0 0 0 0 0 0 0 0 0 0 0 0 0 0 127 0" result="hardAlpha"/>
<feOffset/>
<feGaussianBlur stdDeviation="6"/>
<feComposite in2="hardAlpha" operator="out"/>
<feColorMatrix type="matrix" values="0 0 0 0 0.901961 0 0 0 0 0.113725 0 0 0 0 0.356863 0 0 0 0.2 0"/>
<feBlend mode="normal" in2="BackgroundImageFix" result="effect1_dropShadow_40007084_7949"/>
<feBlend mode="normal" in="SourceGraphic" in2="effect1_dropShadow_40007084_7949" result="shape"/>
</filter>
<clipPath id="clip0_40007084_7949">
<rect x="12" y="22.3525" width="40" height="40" rx="17" transform="rotate(-15 12 22.3525)" fill="white"/>
</clipPath>
<clipPath id="clip1_40007084_7949">
<rect width="24" height="24" fill="white" transform="translate(21.798 28.0093) rotate(-15)"/>
</clipPath>
</defs>
</svg>
