<svg width="18" height="18" viewBox="0 0 18 18" fill="none" xmlns="http://www.w3.org/2000/svg">
<path d="M5.075 0H12.425C15.225 0 17.5 2.275 17.5 5.075V12.425C17.5 13.771 16.9653 15.0618 16.0136 16.0136C15.0618 16.9653 13.771 17.5 12.425 17.5H5.075C2.275 17.5 0 15.225 0 12.425V5.075C0 3.72903 0.534686 2.43818 1.48643 1.48643C2.43818 0.534686 3.72903 0 5.075 0ZM4.9 1.75C4.06457 1.75 3.26335 2.08187 2.67261 2.67261C2.08187 3.26335 1.75 4.06457 1.75 4.9V12.6C1.75 14.3412 3.15875 15.75 4.9 15.75H12.6C13.4354 15.75 14.2366 15.4181 14.8274 14.8274C15.4181 14.2366 15.75 13.4354 15.75 12.6V4.9C15.75 3.15875 14.3412 1.75 12.6 1.75H4.9ZM13.3438 3.0625C13.6338 3.0625 13.912 3.17773 14.1171 3.38285C14.3223 3.58797 14.4375 3.86617 14.4375 4.15625C14.4375 4.44633 14.3223 4.72453 14.1171 4.92965C13.912 5.13477 13.6338 5.25 13.3438 5.25C13.0537 5.25 12.7755 5.13477 12.5704 4.92965C12.3652 4.72453 12.25 4.44633 12.25 4.15625C12.25 3.86617 12.3652 3.58797 12.5704 3.38285C12.7755 3.17773 13.0537 3.0625 13.3438 3.0625ZM8.75 4.375C9.91032 4.375 11.0231 4.83594 11.8436 5.65641C12.6641 6.47688 13.125 7.58968 13.125 8.75C13.125 9.91032 12.6641 11.0231 11.8436 11.8436C11.0231 12.6641 9.91032 13.125 8.75 13.125C7.58968 13.125 6.47688 12.6641 5.65641 11.8436C4.83594 11.0231 4.375 9.91032 4.375 8.75C4.375 7.58968 4.83594 6.47688 5.65641 5.65641C6.47688 4.83594 7.58968 4.375 8.75 4.375ZM8.75 6.125C8.05381 6.125 7.38613 6.40156 6.89384 6.89384C6.40156 7.38613 6.125 8.05381 6.125 8.75C6.125 9.44619 6.40156 10.1139 6.89384 10.6062C7.38613 11.0984 8.05381 11.375 8.75 11.375C9.44619 11.375 10.1139 11.0984 10.6062 10.6062C11.0984 10.1139 11.375 9.44619 11.375 8.75C11.375 8.05381 11.0984 7.38613 10.6062 6.89384C10.1139 6.40156 9.44619 6.125 8.75 6.125Z" fill="#111922"/>
</svg>
