<svg width="17" height="20" viewBox="0 0 17 20" fill="none" xmlns="http://www.w3.org/2000/svg">
<path d="M16.0218 4.56995C15.0479 4.36162 14.166 3.84765 13.5046 3.10296C12.8432 2.35827 12.437 1.42181 12.3452 0.430079V0H8.98551V13.3334C8.98343 13.9237 8.79645 14.4985 8.45085 14.977C8.10524 15.4556 7.61838 15.8138 7.05869 16.0014C6.49899 16.189 5.89459 16.1964 5.33042 16.0228C4.76625 15.8491 4.27067 15.5031 3.91331 15.0333C3.55041 14.5556 3.3491 13.9747 3.33857 13.3749C3.32804 12.7751 3.50885 12.1875 3.85476 11.6974C4.20068 11.2072 4.69373 10.84 5.2624 10.649C5.83108 10.458 6.44582 10.4531 7.01749 10.6349V7.22162C5.74271 7.0454 4.44473 7.27203 3.30511 7.86983C2.16548 8.46762 1.2412 9.40668 0.661561 10.5556C0.0819194 11.7046 -0.124097 13.006 0.0723285 14.2778C0.268754 15.5497 0.857797 16.7283 1.75706 17.6488C2.61465 18.5263 3.71425 19.1283 4.91552 19.3781C6.11678 19.6278 7.36522 19.5139 8.50145 19.0509C9.63769 18.5879 10.6102 17.7968 11.2948 16.7786C11.9794 15.7604 12.3451 14.5613 12.3452 13.3344V6.5214C13.703 7.49209 15.3309 8.01258 17 8.00961V4.67138C16.6713 4.67179 16.3435 4.63779 16.0218 4.56995Z" fill="#111922"/>
</svg>
