<svg width="23" height="16" viewBox="0 0 23 16" fill="none" xmlns="http://www.w3.org/2000/svg">
<path d="M10.2244 0H12.6269C12.6828 0.00543909 12.7388 0.0147309 12.7948 0.0154108C14.4827 0.036034 16.1706 0.0664023 17.8547 0.186516C18.5842 0.23864 19.3167 0.297564 20.0367 0.419263C21.251 0.624363 22.0499 1.34459 22.3776 2.5353C22.509 3.01258 22.5752 3.51116 22.6357 4.00431C22.7769 5.15558 22.827 6.31388 22.846 7.47309C22.865 8.63275 22.8245 9.79105 22.7372 10.9475C22.679 11.7192 22.5994 12.4882 22.4378 13.2462C22.2232 14.2531 21.661 14.9818 20.7109 15.3963C20.3082 15.5719 19.8763 15.6367 19.445 15.675C18.5428 15.7552 17.6399 15.8361 16.7354 15.8763C15.5096 15.9304 14.2822 15.9461 13.0554 15.9794C12.9124 15.9832 12.7699 15.993 12.6269 16H10.2244C10.1797 15.9948 10.1351 15.9855 10.0904 15.9848C8.27399 15.9633 6.45801 15.925 4.64612 15.7906C4.03354 15.745 3.41937 15.6848 2.81427 15.5821C1.70583 15.394 0.923736 14.7667 0.548665 13.7009C0.397504 13.2712 0.325209 12.8086 0.260847 12.3547C0.0831697 11.101 0.0280989 9.83705 0.00543601 8.57201C-0.0156405 7.39331 0.0253794 6.2162 0.114445 5.04091C0.172688 4.27286 0.254275 3.50844 0.412462 2.75331C0.559997 2.04827 0.894275 1.45813 1.45949 1.00329C1.94039 0.616431 2.50334 0.446232 3.10323 0.362606C4.10651 0.222776 5.1166 0.160227 6.12714 0.121473C7.39104 0.0729745 8.65609 0.051898 9.92068 0.0181303C10.022 0.0154108 10.1231 0.00634561 10.2244 0ZM15.0855 8.00023C13.0905 6.84895 11.12 5.71196 9.14334 4.57111V11.4293C11.1259 10.2853 13.0948 9.14924 15.0855 8.00023Z" fill="#111922"/>
</svg>
